
<svg xmlns="http://www.w3.org/2000/svg" version="1.1" xmlns:xlink="http://www.w3.org/1999/xlink" preserveAspectRatio="none" x="0px" y="0px" width="408px" height="400px" viewBox="0 0 408 400">
<defs>
<g id="Layer1_0_FILL">
<path fill="#FDF1D9" stroke="none" d="
M 218.25 94.2
Q 211.16171875 89.2734375 202.55 87.85 180.320703125 91.5595703125 173.95 112.45 170.4380859375 126.74453125 176.6 148.65 181.1501953125 163.2484375 203.35 175.95 243.5318359375 176.948828125 250.85 168.05 257.693359375 163.992578125 257.85 157.2 267.4208984375 140.0384765625 267.45 118.6 242.0513671875 94.00078125 218.25 94.2
M 207.45 109
Q 207.1740234375 110.25 207.45 111.5 207.1740234375 110.25 207.45 109 201.5654296875 104.3455078125 195 103 201.5654296875 104.3455078125 207.45 109
M 239.35 131.25
L 236.5 132
Q 244.516015625 125.6666015625 254.55 130.6
L 255.45 133.1
Q 255.7791015625 133.4072265625 256.1 133.7 256.9369140625 137.28359375 255.4 139.85 254.32734375 141.87890625 253.65 144.5 252.2953125 147.3423828125 250.75 148.85 242.1490234375 155.4033203125 236.6 148.15 230.8587890625 140.583203125 236.1 135 235.1169921875 135.4212890625 234.1 135.9 236.7365234375 132.9193359375 239.35 131.25
M 211.25 123.9
Q 209.401953125 121.1916015625 207.3 118.85 207.571875 124.354296875 206.25 127.1 204.6380859375 130.42265625 201.4 132.3 195.3060546875 136.640625 188.5 131.9 186.27734375 130.3646484375 183.95 127.8 180.57421875 125.0466796875 178.9 121.35 183.078125 114.591015625 187.75 109.05 188.2134765625 108.15 189.5 107.25 186.798828125 106.3990234375 183.9 105.9 206.46875 102.05 211.25 123.9
M 195.65 152.3
Q 196.69296875 152.3095703125 197.7 152.35 211.3275390625 152.9990234375 217.85 160.6 214.823046875 162.2330078125 213.35 164.1 191.1265625 162.5109375 197.7 152.35 196.69296875 152.3095703125 195.65 152.3
M 242 126.35
Q 243.32578125 123.9560546875 252.3 126.9 243.32578125 123.9560546875 242 126.35 Z"/>

<path fill="#E5937B" stroke="none" d="
M 213.35 164.1
Q 214.823046875 162.2330078125 217.85 160.6 211.3275390625 152.9990234375 197.7 152.35 191.1265625 162.5109375 213.35 164.1 Z"/>

<path fill="#A14C9A" stroke="none" d="
M 190.5 125
Q 190.801171875 125.6572265625 191.2 126.3 194.4962890625 129.8509765625 198.3 127.65 199.1361328125 126.9681640625 199.5 125.95 195.0162109375 121.663671875 190.5 125 Z"/>

<path fill="#F9CAF8" stroke="none" d="
M 186.7 120.2
Q 185.412109375 120.4064453125 184.75 120.65 183.8646484375 125.546484375 188.5 131.9 195.3060546875 136.640625 201.4 132.3 204.6380859375 130.42265625 206.25 127.1 203.33515625 125.0818359375 199.8 124.85 199.691796875 125.4193359375 199.5 125.95 199.1361328125 126.9681640625 198.3 127.65 194.4962890625 129.8509765625 191.2 126.3 190.801171875 125.6572265625 190.5 125 189.6654296875 123.1248046875 189.7 121.15 188.0466796875 119.9890625 186.7 120.2 Z"/>

<path fill="#F9FAF8" stroke="none" d="
M 192.75 111
Q 191.60625 108.075390625 187.75 109.05 183.078125 114.591015625 178.9 121.35 180.57421875 125.0466796875 183.95 127.8 186.27734375 130.3646484375 188.5 131.9 183.8646484375 125.546484375 184.75 120.65 185.3416015625 117.2734375 188.55 114.6 194.1205078125 115.3001953125 192.75 111 Z"/>

<path fill="#4C1638" stroke="none" d="
M 206.25 127.1
Q 207.571875 124.354296875 207.3 118.85 199.8533203125 110.497265625 189.5 107.25 188.2134765625 108.15 187.75 109.05 191.60625 108.075390625 192.75 111 194.1205078125 115.3001953125 188.55 114.6 185.3416015625 117.2734375 184.75 120.65 185.412109375 120.4064453125 186.7 120.2 188.0466796875 119.9890625 189.7 121.15 189.6654296875 123.1248046875 190.5 125 195.0162109375 121.663671875 199.5 125.95 199.691796875 125.4193359375 199.8 124.85 203.33515625 125.0818359375 206.25 127.1 Z"/>

<path fill="#361421" stroke="none" d="
M 207.3 118.85
Q 209.401953125 121.1916015625 211.25 123.9 206.46875 102.05 183.9 105.9 186.798828125 106.3990234375 189.5 107.25 199.8533203125 110.497265625 207.3 118.85 Z"/>

<path fill="#FDD1FD" stroke="none" d="
M 241.3 145.15
Q 239.5080078125 146.74296875 236.6 148.15 242.1490234375 155.4033203125 250.75 148.85 252.2953125 147.3423828125 253.65 144.5
L 249.2 142.7
Q 249.0609375 144.3400390625 247.05 146.15 243.906640625 148.6009765625 241.3 145.15 Z"/>

<path fill="#8F408B" stroke="none" d="
M 241.3 140.85
Q 240.30234375 143.271875 241.3 145.15 243.906640625 148.6009765625 247.05 146.15 249.0609375 144.3400390625 249.2 142.7 245.25 142.31640625 241.3 140.85 Z"/>

<path fill="#F698E9" stroke="none" d="
M 241.3 140.85
Q 239.7197265625 141.873046875 236.8 140.6 235.565625 144.083203125 236.6 148.15 239.5080078125 146.74296875 241.3 145.15 240.30234375 143.271875 241.3 140.85 Z"/>

<path fill="#FAE6F2" stroke="none" d="
M 236.8 140.6
Q 237.6033203125 138.35390625 239.35 136.35 245.6287109375 136.6142578125 244.2 132.4 240.459765625 133.1421875 236.1 135 230.8587890625 140.583203125 236.6 148.15 235.565625 144.083203125 236.8 140.6 Z"/>

<path fill="#4B1332" stroke="none" d="
M 239.35 136.35
Q 237.6033203125 138.35390625 236.8 140.6 239.7197265625 141.873046875 241.3 140.85 245.25 142.31640625 249.2 142.7
L 253.65 144.5
Q 254.32734375 141.87890625 255.4 139.85 256.9369140625 137.28359375 256.1 133.7 251.2486328125 131.0412109375 244.2 132.4 245.6287109375 136.6142578125 239.35 136.35 Z"/>

<path fill="#391427" stroke="none" d="
M 234.1 135.9
Q 235.1169921875 135.4212890625 236.1 135 240.459765625 133.1421875 244.2 132.4 251.2486328125 131.0412109375 256.1 133.7 255.7791015625 133.4072265625 255.45 133.1 247.369921875 126.2208984375 239.35 131.25 236.7365234375 132.9193359375 234.1 135.9 Z"/>

<path fill="#3A171D" stroke="none" d="
M 236.5 132
L 239.35 131.25
Q 247.369921875 126.2208984375 255.45 133.1
L 254.55 130.6
Q 244.516015625 125.6666015625 236.5 132 Z"/>
</g>

<g id="Layer0_0_FILL">
<path fill="#3F3033" stroke="none" d="
M 254.15 311.8
Q 250.3353515625 313.742578125 246.15 313.45 249.559765625 318.2099609375 251.95 322.8 251.980078125 331.301171875 255.35 331.05 260.6046875 330.590625 257.85 322.85 256.2130859375 320.3193359375 255.7 310.9 254.931640625 311.3951171875 254.15 311.8
M 249.6 315.4
Q 252.2419921875 315.1185546875 253.9 314.05 254.2943359375 318.790234375 256.85 323.25 255.216015625 325.561328125 254.2 324.3 251.4462890625 319.85 249.6 315.4 Z"/>

<path fill="#53484C" stroke="none" d="
M 253.9 314.05
Q 252.2419921875 315.1185546875 249.6 315.4 251.4462890625 319.85 254.2 324.3 255.216015625 325.561328125 256.85 323.25 254.2943359375 318.790234375 253.9 314.05
M 182.95 336.4
Q 190.4310546875 343.089453125 188.9 336.95 185.5462890625 331.2572265625 182.8 324.35 180.1189453125 327.840625 170.2 313.3 175.4705078125 329.766796875 182.95 336.4 Z"/>

<path fill="#3F2F32" stroke="none" d="
M 182.5 318.35
Q 186.4123046875 319.5556640625 187.1 317.35 178.723828125 315.1265625 178.9 317.7 179.9765625 321.1638671875 182.55 323.05 171.2251953125 319.0826171875 170.45 303.45 170.106640625 300.4140625 162.05 302.7 165.761328125 312.3271484375 169.95 320.35 176.9958984375 333.907421875 187.35 345.15 194.04453125 344.61875 193.55 341.1 185.6876953125 331.5484375 182.5 318.35
M 188.9 336.95
Q 190.4310546875 343.089453125 182.95 336.4 175.4705078125 329.766796875 170.2 313.3 180.1189453125 327.840625 182.8 324.35 185.5462890625 331.2572265625 188.9 336.95 Z"/>

<path fill="#6F505B" stroke="none" d="
M 236.9 286.8
Q 235.0025390625 287.9431640625 232.95 288.7 232.590234375 289.087890625 232.2 289.45 245.274609375 292.61015625 254.15 311.8 254.931640625 311.3951171875 255.7 310.9 262.25546875 308.2197265625 263.55 304.05 263.59453125 303.958984375 263.6 303.85 263.694921875 303.548046875 263.75 303.25 263.694921875 303.548046875 263.6 303.85 264.6130859375 303.3208984375 265.9 303.85 268.2373046875 294.872265625 259.6 292.8 256.3982421875 295.108203125 255.65 298.95 247.729296875 292.1541015625 236.9 286.8 Z"/>

<path fill="#7B5B68" stroke="none" d="
M 232.95 288.7
Q 238.0875 283.1013671875 241.05 276.5 233.3892578125 266.777734375 215.3 260.25 185.36953125 261.6634765625 172.05 278.55 171.8546875 300.98203125 187.1 317.3 187.14140625 317.2806640625 187.15 317.25 188.076171875 314.1802734375 191 310.6 193.721875 306.979296875 201 307.7 199.52421875 309.787890625 200.4 310.7 205.78984375 313.6458984375 212.15 313.1 205.4798828125 317.0921875 208.25 317.7 213.0427734375 318.4419921875 218.4 316.2 223.766015625 314.00078125 221.9 308.6 227.5541015625 301.3396484375 235.2 300.5 240.90234375 301.8556640625 241.55 306.6 238.545703125 310.775390625 239.55 313.85 243.0064453125 314.6689453125 246.15 313.45 250.3353515625 313.742578125 254.15 311.8 245.274609375 292.61015625 232.2 289.45 231.1521484375 290.5791015625 230 291.65 231.1521484375 290.5791015625 232.2 289.45 232.590234375 289.087890625 232.95 288.7 Z"/>

<path fill="#E47B80" stroke="none" d="
M 200.55 232.7
Q 199.9328125 229.300390625 199.45 225.45 199.2263671875 223.3912109375 199 221.2 196.672265625 233.1388671875 188.75 231.7 193.5384765625 233.18828125 200.55 232.7 Z"/>

<path fill="#C67B79" stroke="none" d="
M 171.2 201.3
Q 172.4236328125 207.1751953125 177.7 209.35 170.7177734375 204.04765625 177.3 199.7 178.35546875 198.28203125 179.65 196.95 174.1625 198.0990234375 171.2 201.3 Z"/>

<path fill="#F19682" stroke="none" d="
M 198.15 204.8
Q 195.9306640625 207.7259765625 196.1 211.05 194.7328125 207.3130859375 194.25 202.25 190.999609375 206.3 189.5 210.35 189.2251953125 212.3970703125 189 214.5 188.2818359375 222.6580078125 188.75 231.7 196.672265625 233.1388671875 199 221.2 198.325390625 213.7458984375 198.15 204.8 Z"/>

<path fill="#C36762" stroke="none" d="
M 186.95 213.85
Q 187.2015625 212.2537109375 187.7 210.7 185.141015625 211.4142578125 182.25 210.8
L 177.7 209.35
Q 176.8140625 210.1548828125 177.7 212.2 180.8900390625 213.203125 183.95 213.85
L 186.95 213.85 Z"/>

<path fill="#F9D6B8" stroke="none" d="
M 220.65 198.6
Q 224.6 198.8072265625 228.25 198.25 227.36640625 195.2607421875 226.65 192.1 217.312109375 189.9330078125 220.65 198.6
M 230.4 204.5
Q 227.5640625 205.38359375 224.4 206.1 225.3 210.469140625 228.55 214.5 230.0935546875 214.7388671875 231.75 215.1
L 233.5 213.2 230.4 204.5 Z"/>

<path fill="#634F5D" stroke="none" d="
M 210.35 201.85
L 212.45 204.4
Q 216.93984375 208.622265625 221.7 212.1 222.7546875 212.76015625 223.8 213.4 224.5892578125 209.7421875 222.4 205.65 216.3107421875 204.2453125 211.1 201.05 210.9806640625 201.5970703125 210.35 201.85 Z"/>

<path fill="#966A65" stroke="none" d="
M 234.4 215.8
L 233.5 213.2 231.75 215.1
Q 233.0400390625 215.4078125 234.4 215.8 Z"/>

<path fill="#D59E81" stroke="none" d="
M 225.05 214.25
Q 226.7224609375 214.2755859375 228.55 214.5 225.3 210.469140625 224.4 206.1 223.3908203125 205.9130859375 222.4 205.65 224.5892578125 209.7421875 223.8 213.4 224.423828125 213.836328125 225.05 214.25 Z"/>

<path fill="#DB676F" stroke="none" d="
M 228.55 214.5
Q 226.7224609375 214.2755859375 225.05 214.25 226.9140625 215.488671875 228.85 216.85
L 233 219
Q 231.559765625 221.1599609375 228.5 222.6 226.6111328125 223.0259765625 220.7 220.1 221.8201171875 220.9650390625 223 221.8
L 229.1 225.7 231.5 224.7 236 221.5 239.1 219.75 242.25 218.05 237.2 216.6 234.4 215.8
Q 233.0400390625 215.4078125 231.75 215.1 230.0935546875 214.7388671875 228.55 214.5 Z"/>

<path fill="#EE9884" stroke="none" d="
M 228.85 216.85
Q 226.7744140625 215.61171875 224.75 214.25 224.261328125 213.921484375 223.75 213.55 222.74453125 212.864453125 221.7 212.1 214.1205078125 207.4025390625 207.7 204.9 212.08046875 213.3798828125 220.7 220.1 226.6111328125 223.0259765625 228.5 222.6 231.559765625 221.1599609375 233 219
L 228.85 216.85 Z"/>

<path fill="#F9C59E" stroke="none" d="
M 232.5 203.8
Q 231.4880859375 204.1759765625 230.4 204.5
L 233.5 213.2 234.4 215.8 237.2 216.6 232.5 203.8 Z"/>

<path fill="#FEA46E" stroke="none" d="
M 299 295.1
Q 300.05234375 291.14140625 300.55 286.55 297.2140625 277.405078125 291.1 266.7 292.369140625 278.50390625 290.9 288.25 289.9150390625 295.1978515625 287.5 301.1 281.98671875 314.7896484375 269.1 322.9 289.3310546875 316.3294921875 295.5 303.9 297.6759765625 299.9833984375 299 295.1 Z"/>

<path fill="#694B55" stroke="none" d="
M 301.1 285.35
Q 301.1947265625 286.889453125 301.2 288.4 300.888671875 287.4833984375 300.55 286.55 300.05234375 291.14140625 299 295.1 309.3 301.5818359375 319.6 304.7 326.484375 306.007421875 329.45 304.2 315.4771484375 296.511328125 301.1 285.35 Z"/>

<path fill="#593C44" stroke="none" d="
M 281.6 295.9
Q 282.3736328125 296.309375 282.8 296.7 284.2359375 298.0140625 282.7 299.4 285.3005859375 300.8140625 287.5 301.1 289.9150390625 295.1978515625 290.9 288.25 282.520703125 280.6251953125 257.35 267.6 266.7435546875 283.8078125 275.9 294.1 277.733984375 293.734375 281.6 295.9 Z"/>

<path fill="#805B68" stroke="none" d="
M 259.6 292.8
Q 252.7240234375 287.9494140625 244.35 280.3 240.96328125 284.403125 236.9 286.8 247.729296875 292.1541015625 255.65 298.95 256.3982421875 295.108203125 259.6 292.8 Z"/>

<path fill="#64464E" stroke="none" d="
M 248.55 274.25
Q 246.601171875 277.6263671875 244.35 280.3 252.7240234375 287.9494140625 259.6 292.8 268.2373046875 294.872265625 265.9 303.85 266.4943359375 304.0865234375 267.15 304.55 266.626171875 306.57421875 269.2 307.6 274.82265625 307.9091796875 277.35 302.45
L 275.05 299.3 277.35 302.45
Q 281.573828125 302.523828125 282.7 299.4 284.2359375 298.0140625 282.8 296.7 281.2853515625 296.8171875 280.35 297.15 279.33984375 297.593359375 279.1 298.35 279.33984375 297.593359375 280.35 297.15 279.213671875 296.9107421875 278.45 296.05 279.213671875 296.9107421875 280.35 297.15 281.2853515625 296.8171875 282.8 296.7 282.3736328125 296.309375 281.6 295.9 277.733984375 293.734375 275.9 294.1 262.3365234375 287.496484375 249.3 272.9 248.92890625 273.58828125 248.55 274.25 Z"/>

<path fill="#F9C39D" stroke="none" d="
M 246.85 254.35
Q 247.30546875 256.1673828125 247.7 257.9 249.0138671875 265.9015625 248.55 274.25 248.92890625 273.58828125 249.3 272.9 251.408203125 266.6939453125 251.7 257.4 253.108203125 243.34765625 249.3 227.5 252.15 246.0890625 248.95 252.2 244.696875 235.48359375 239.1 219.75
L 236 221.5
Q 240.861328125 231.4826171875 244.8 245.9 245.9220703125 250.320703125 246.85 254.35 Z"/>

<path fill="#F6A477" stroke="none" d="
M 246.85 254.35
L 244.7 250.3
Q 245.2173828125 251.9634765625 245.7 253.7 246.4361328125 261.758984375 243.9 268 242.890625 272.4416015625 241.05 276.5 238.0875 283.1013671875 232.95 288.7 235.0025390625 287.9431640625 236.9 286.8 240.96328125 284.403125 244.35 280.3 246.601171875 277.6263671875 248.55 274.25 249.0138671875 265.9015625 247.7 257.9 247.30546875 256.1673828125 246.85 254.35 Z"/>

<path fill="#4D3942" stroke="none" d="
M 244.7 250.3
L 246.85 254.35
Q 245.9220703125 250.320703125 244.8 245.9 240.861328125 231.4826171875 236 221.5
L 231.5 224.7
Q 239.658203125 234.0044921875 244.7 250.3 Z"/>

<path fill="#D4B5B3" stroke="none" d="
M 243.8 210.25
Q 244.130078125 209.25703125 245.8 206.25 243.2654296875 203.3857421875 240.6 200.4 240.2009765625 200.6328125 239.8 200.8 242.008203125 205.601171875 243.8 210.25 Z"/>

<path fill="#F8DBB7" stroke="none" d="
M 249.3 227.5
Q 247.2880859375 219.12109375 243.8 210.25 242.008203125 205.601171875 239.8 200.8 236.455078125 202.49375 232.5 203.8
L 237.2 216.6 242.25 218.05 239.1 219.75
Q 244.696875 235.48359375 248.95 252.2 252.15 246.0890625 249.3 227.5
M 237.2 194.45
L 235.35 190.35
Q 230.36640625 187.7802734375 231.4 197.7
L 234.5 197.15
Q 235.8884765625 195.813671875 237.2 194.45 Z"/>

<path fill="#4C3837" stroke="none" d="
M 243.8 210.25
Q 247.2880859375 219.12109375 249.3 227.5 253.108203125 243.34765625 251.7 257.4 254.536328125 262.7787109375 257.35 267.6 282.520703125 280.6251953125 290.9 288.25 292.369140625 278.50390625 291.1 266.7 276.4654296875 241.048046875 245.8 206.25 244.130078125 209.25703125 243.8 210.25
M 257.8 242.3
Q 256.7919921875 229.188671875 253.2 217.8 290.394140625 262.84609375 287.3 273.1 273.9841796875 257.221875 257.8 242.3 Z"/>

<path fill="#6B525B" stroke="none" d="
M 253.2 217.8
Q 256.7919921875 229.188671875 257.8 242.3 273.9841796875 257.221875 287.3 273.1 290.394140625 262.84609375 253.2 217.8 Z"/>

<path fill="#FBFAD7" stroke="none" d="
M 271.45 215.4
L 245.6 200.2
Q 271.7923828125 226.662109375 296.25 259.65 294.6900390625 254.98046875 292.6 250.2 285.23125 233.2005859375 271.45 215.4 Z"/>

<path fill="#FABF95" stroke="none" d="
M 245.6 200.2
L 271.45 215.4
Q 266.005078125 208.32734375 259.5 201.1 254.2470703125 198.952734375 248.35 195.2 245.012890625 198.119921875 240.6 200.4 243.2654296875 203.3857421875 245.8 206.25 276.4654296875 241.048046875 291.1 266.7 297.2140625 277.405078125 300.55 286.55 300.888671875 287.4833984375 301.2 288.4 301.1947265625 286.889453125 301.1 285.35 300.625 272.771484375 296.25 259.7
L 296.25 259.65
Q 271.7923828125 226.662109375 245.6 200.2 Z"/>

<path fill="#FDA670" stroke="none" d="
M 307.1 206.8
Q 302.50546875 205.63359375 298.35 203.8 295.8591796875 205.31328125 290.8 206.1 308.3080078125 208.8806640625 314.25 208.6 333.2861328125 197.671484375 336.1 153 322.9576171875 195.994921875 300.25 202.25 303.4962890625 205.5072265625 307.1 206.8 Z"/>

<path fill="#4F3E44" stroke="none" d="
M 70.55 328.8
Q 64.7982421875 323.3447265625 67.4 317.2 72.1154296875 307 80.45 296.8 69.227734375 303.997265625 57.45 310.4 56.2806640625 319.887109375 58.1 325.45 59.205859375 329.191796875 60.6 333.3 64.616015625 345.3970703125 70.8 351.3
L 80.05 359.85 105.4 355.2 106.9 350.85
Q 108.7353515625 346.2193359375 110.75 341.65 108.3298828125 335.3951171875 108.95 325.15 101.562890625 330.9521484375 93.65 333.25 82.1 335.3251953125 70.55 328.8 Z"/>

<path fill="#5A454C" stroke="none" d="
M 145.15 290.75
Q 139.9580078125 288.7234375 135.45 285.8
L 122.6 316 126.85 317.35
Q 132.99921875 317.9853515625 129.1 314.15 126.0701171875 311.33515625 126.9 308.95 132.091015625 316.908984375 140.2 317.55 140.63984375 313.52265625 141.8 311.3 144.875390625 311.791796875 147.25 310.6 147.1091796875 314.22578125 148.2 317.5 149.65 317.8861328125 151.1 317.5 152.65 320.3107421875 154.2 321.1 153.6314453125 306.10546875 162.05 302.7 170.106640625 300.4140625 170.45 303.45 171.2251953125 319.0826171875 182.55 323.05 179.9765625 321.1638671875 178.9 317.7 178.723828125 315.1265625 187.1 317.35
L 187.1 317.3
Q 171.8546875 300.98203125 172.05 278.55 185.36953125 261.6634765625 215.3 260.25 233.3892578125 266.777734375 241.05 276.5 242.890625 272.4416015625 243.9 268 241.3345703125 267.394140625 237.25 262.15 214.3923828125 257.7078125 203.6 259.6 181.4275390625 265.671484375 165.3 262.8 154.346484375 277.05 145.15 290.75 Z"/>

<path fill="#FAB693" stroke="none" d="
M 145.15 290.75
Q 140.800390625 286.4078125 137.3 281.7 125.90859375 266.273828125 123.75 246.9 123.5158203125 263.6134765625 126.8 270.95 119.1462890625 265.148046875 113.55 255.9 120.5005859375 275.95546875 135.45 285.8 139.9580078125 288.7234375 145.15 290.75 Z"/>

<path fill="#644E56" stroke="none" d="
M 137.3 281.7
Q 140.800390625 286.4078125 145.15 290.75 154.346484375 277.05 165.3 262.8 181.4275390625 265.671484375 203.6 259.6 214.3923828125 257.7078125 237.25 262.15 232.4505859375 255.88203125 225.5 243 224.6763671875 246.997265625 225.75 249.05 224.6763671875 246.997265625 225.5 243 225.20078125 242.462109375 224.9 241.9
L 222.5 229.4
Q 222.1 226.875 222.15 225.05 219.6416015625 231.2447265625 217.3 240.7 219.6416015625 231.2447265625 222.15 225.05 222.283203125 222.9794921875 223 221.8 207.0412109375 212.2244140625 198.1 196.3 198.0712890625 200.7056640625 198.15 204.8 198.325390625 213.7458984375 199 221.2 199.2263671875 223.3912109375 199.45 225.45 199.9328125 229.300390625 200.55 232.7 193.5384765625 233.18828125 188.75 231.7 188.2818359375 222.6580078125 189 214.5 189.2251953125 212.3970703125 189.5 210.35 189.8810546875 207.594140625 190.4 204.95 188.617578125 207.74765625 187.7 210.7 187.2015625 212.2537109375 186.95 213.85
L 183.95 213.85
Q 179.3427734375 214.33828125 172 213.85
L 164.2 212.35
Q 164.082421875 219.32890625 165.9 224 161.4458984375 232.5041015625 164.1 233.9 155.6880859375 241.01171875 156.7 243.6 156.1353515625 248.835546875 154.4 252.9 146.6306640625 267.467578125 140.3 271.6 138.349609375 276.09453125 137.3 281.7
M 166.6 249.8
Q 189.7798828125 256.1859375 214.5 256.65 189.7798828125 256.1859375 166.6 249.8
M 173.65 246.05
Q 193.89140625 243.470703125 210.25 238.95 193.89140625 243.470703125 173.65 246.05 Z"/>

<path fill="#6C525B" stroke="none" d="
M 113 254.25
Q 111.4705078125 254.5078125 110.25 257.1 112.38984375 263.99140625 115.7 270.25 110.6052734375 265.942578125 107.35 259.95 105.3 262.287890625 103.25 265.8 103.032421875 266.1302734375 102.8 266.45 92.3869140625 282.2171875 80.45 296.8 72.1154296875 307 67.4 317.2 64.7982421875 323.3447265625 70.55 328.8 82.1 335.3251953125 93.65 333.25 101.562890625 330.9521484375 108.95 325.15 108.3298828125 335.3951171875 110.75 341.65 113.5412109375 335.2796875 116.65 329
L 122.6 316 135.45 285.8
Q 120.5005859375 275.95546875 113.55 255.9 113.287109375 255.09453125 113 254.25 Z"/>

<path fill="#F9B88F" stroke="none" d="
M 107.7 215.1
Q 103.43359375 220.9671875 101.6 244.75 103.2982421875 252.7966796875 107.35 259.95 110.6052734375 265.942578125 115.7 270.25 112.38984375 263.99140625 110.25 257.1 104.6765625 238.775390625 107.6 216 107.657421875 215.551953125 107.7 215.1 Z"/>

<path fill="#493D41" stroke="none" d="
M 153.75 208.9
Q 152.20546875 208.182421875 150.8 207.3 144.212109375 203.264453125 140.4 195.9 139.8267578125 198.1072265625 139.25 200.25 147.6787109375 222.7189453125 141.5 268.45 158.2748046875 224.037890625 161.1 211.55 157.9458984375 210.5904296875 153.75 208.9 Z"/>

<path fill="#5D4C52" stroke="none" d="
M 137.9 204.95
Q 133.9072265625 229.89765625 128.8 242.9 133.408984375 256.5201171875 141.5 268.45 147.6787109375 222.7189453125 139.25 200.25 138.5787109375 202.640625 137.9 204.95 Z"/>

<path fill="#43393D" stroke="none" d="
M 128.8 242.9
Q 133.9072265625 229.89765625 137.9 204.95 131.4529296875 226.9958984375 123.35 241.3 123.4662109375 244.1392578125 123.75 246.9 125.90859375 266.273828125 137.3 281.7 138.349609375 276.09453125 140.3 271.6 140.9052734375 270.0232421875 141.5 268.45 133.408984375 256.5201171875 128.8 242.9 Z"/>

<path fill="#FAD19B" stroke="none" d="
M 152.15 197.4
Q 149.494921875 191.209765625 148.25 184.4 148.172265625 183.978515625 148.1 183.55 147.8986328125 180.4017578125 147.8 177.4 145.9828125 190.0837890625 150.8 207.3 152.20546875 208.182421875 153.75 208.9 157.9458984375 210.5904296875 161.1 211.55 162.803125 212.0677734375 164.2 212.35
L 172 213.85
Q 179.3427734375 214.33828125 183.95 213.85 180.8900390625 213.203125 177.7 212.2 171.1958984375 210.16171875 164.15 206.65
L 161.8 205.8
Q 158.0478515625 204.0986328125 153.9 201.1 156.255859375 205.612109375 159.4 209.8 156.255859375 205.612109375 153.9 201.1 152.9900390625 199.2908203125 152.15 197.4 Z"/>

<path fill="#FEEFC1" stroke="none" d="
M 146.35 151.95
Q 143.28359375 153.95625 141.75 158.1
L 141.55 158.65
Q 141.5330078125 158.775 141.5 158.85 140.7146484375 161.2515625 140 163.9 139.954296875 164.0767578125 139.9 164.25 134.9376953125 183.8029296875 140.4 195.9 144.212109375 203.264453125 150.8 207.3 145.9828125 190.0837890625 147.8 177.4 147.5095703125 166.2298828125 148.9 157.5 146.6822265625 160.1087890625 145.2 176.4 142.7498046875 164.525 146.35 151.95 Z"/>

<path fill="#FDF0D8" stroke="none" d="
M 119.35 176.85
Q 117.5 180.6392578125 115.1 184.2 109.680078125 200.5509765625 107.7 215.1 107.657421875 215.551953125 107.6 216 107.83984375 238.237890625 113 254.25 113.287109375 255.09453125 113.55 255.9 119.1462890625 265.148046875 126.8 270.95 123.5158203125 263.6134765625 123.75 246.9 123.4662109375 244.1392578125 123.35 241.3 124.2876953125 205.4537109375 131.85 177.95 128.46640625 186.2775390625 124.95 197.3 126.195703125 180.106640625 131.85 164.1 124.1056640625 170.01171875 119.35 176.85 Z"/>

<path fill="#F8DCC6" stroke="none" d="
M 115.1 184.2
Q 114.28046875 185.409375 113.4 186.6 96.3234375 219.9212890625 101.6 244.75 103.43359375 220.9671875 107.7 215.1 109.680078125 200.5509765625 115.1 184.2 Z"/>

<path fill="#ECCC96" stroke="none" d="
M 121.4 172.4
Q 115.2 179.4060546875 109 182.6 106.62734375 184.85859375 100.25 186 105.3357421875 188.6232421875 113.4 186.6 114.28046875 185.409375 115.1 184.2 117.5 180.6392578125 119.35 176.85 120.4791015625 174.66875 121.4 172.4 Z"/>

<path fill="#FDBB78" stroke="none" d="
M 109 182.6
Q 95.95859375 174.74140625 91.8 156.6 89.967578125 180.744140625 100.25 186 106.62734375 184.85859375 109 182.6 Z"/>

<path fill="#320E16" stroke="none" d="
M 154.55 125.1
Q 151.1033203125 130.1287109375 147.25 135.05 148.55 138.197265625 149.85 138.9 153.3462890625 131.2921875 155.65 123.4 155.1126953125 124.266796875 154.55 125.1 Z"/>

<path fill="#ECC79C" stroke="none" d="
M 156.5 138.7
Q 155.1875 140.137890625 153.85 143.6
L 153.85 143.6
Q 154.0890625 150.4443359375 155.55 157.8 156.649609375 163.187109375 158.4 168.85 159.59375 172.7052734375 161.1 176.7 160.596875 172.51640625 160.25 168.35 159.9658203125 164.968359375 159.75 161.6 159.42109375 154.92265625 159.45 148.3 158.3615234375 152.948046875 158.2 163.15 154.8900390625 151.87109375 156.5 138.7 Z"/>

<path fill="#5D4A4C" stroke="none" d="
M 151.55 146.9
Q 151.36953125 147.401953125 151.2 147.9 150.5232421875 149.927734375 149.95 152.1
L 155.55 157.8
Q 154.0890625 150.4443359375 153.85 143.6 152.445703125 144.5525390625 151.75 146.3 151.64140625 146.599609375 151.55 146.9
M 164.3 164.6
Q 163.026171875 161.3541015625 162 157.7 160.4203125 152.0396484375 159.5 145.4 159.471875 146.848828125 159.45 148.3 159.42109375 154.92265625 159.75 161.6
L 164.3 164.6 Z"/>

<path fill="#E29C71" stroke="none" d="
M 151.2 147.9
Q 149.835546875 147.2111328125 148.25 145.45 144.3154296875 150.593359375 141.75 158.1 143.28359375 153.95625 146.35 151.95 142.7498046875 164.525 145.2 176.4 146.6822265625 160.1087890625 148.9 157.5 149.3494140625 154.684375 149.95 152.1 150.5232421875 149.927734375 151.2 147.9 Z"/>

<path fill="#C79A78" stroke="none" d="
M 148.25 145.45
Q 147.7412109375 144.8607421875 147.15 144.1 140.62734375 154.794140625 136.45 167.15 136.99765625 167.355078125 139.9 164.25 139.954296875 164.0767578125 140 163.9 140.7146484375 161.2515625 141.5 158.85 141.5330078125 158.775 141.55 158.65
L 141.75 158.1
Q 144.3154296875 150.593359375 148.25 145.45 Z"/>

<path fill="#F3C08D" stroke="none" d="
M 146.05 142.35
L 145 143
Q 131.2125 154.9177734375 121.4 172.4 120.4791015625 174.66875 119.35 176.85 124.1056640625 170.01171875 131.85 164.1 126.195703125 180.106640625 124.95 197.3 128.46640625 186.2775390625 131.85 177.95 133.7009765625 173.5162109375 136.45 167.15 140.62734375 154.794140625 147.15 144.1
L 146.05 143.3
Q 146.0955078125 142.7591796875 146.05 142.35 Z"/>

<path fill="#4E3A43" stroke="none" d="
M 148.4 141.1
Q 147.4990234375 139.2259765625 149.85 138.9 148.55 138.197265625 147.25 135.05 145.25859375 137.6171875 143.15 140.15 144.539453125 141.66796875 145 143
L 146.05 142.35
Q 145.9890625 140.8294921875 148.4 141.1 Z"/>

<path fill="#E87365" stroke="none" d="
M 149.85 138.9
Q 147.4990234375 139.2259765625 148.4 141.1 145.9890625 140.8294921875 146.05 142.35 146.0955078125 142.7591796875 146.05 143.3
L 147.15 144.1
Q 147.7412109375 144.8607421875 148.25 145.45 149.835546875 147.2111328125 151.2 147.9 151.36953125 147.401953125 151.55 146.9 151.64140625 146.599609375 151.75 146.3 150.006640625 145.4125 149.25 144.5 150.006640625 145.4125 151.75 146.3 152.445703125 144.5525390625 153.85 143.6
L 153.85 143.6 153.85 143.55
Q 151.29921875 141.7681640625 149.85 138.9 Z"/>

<path fill="#EEA06F" stroke="none" d="
M 137.15 144.15
Q 139.381640625 140.56640625 141.5 136.9 129.679296875 143.7865234375 107.8 136.35 123.934375 146.126953125 137.15 144.15 Z"/>

<path fill="#44383A" stroke="none" d="
M 135.65 99.25
L 135.25 99.25
Q 137.4013671875 118.07109375 141.3 135.65 141.4197265625 136.10859375 141.5 136.55
L 141.55 136.8
Q 143.6189453125 133.4271484375 145.55 129.95 144.215234375 129.456640625 143.65 127.15
L 143.65 102.05
Q 139.5990234375 101.123046875 135.65 99.25 Z"/>

<path fill="#E19B79" stroke="none" d="
M 157 121.4
Q 156.3458984375 122.43125 155.65 123.4 153.3462890625 131.2921875 149.85 138.9 151.29921875 141.7681640625 153.85 143.55 153.5736328125 133.379296875 156.1 124.45 156.1625 124.328515625 156.2 124.2 156.57421875 122.8267578125 157 121.4 Z"/>

<path fill="#2F1214" stroke="none" d="
M 159.9 102.05
Q 156.76796875 102.741015625 153.7 102.9 148.582421875 103.178515625 143.65 102.05
L 143.65 127.15
Q 144.215234375 129.456640625 145.55 129.95 149.3798828125 123.237109375 152.9 116.35 156.5478515625 109.290625 159.9 102.05
M 273.45 171.85
Q 272.2857421875 166.26015625 271.25 159.95 270.073046875 163.432421875 268.6 166.75 266.2267578125 172.116015625 263.15 177.1 268.84609375 175.6580078125 273.45 171.85
M 239.95 182.75
L 241.15 183.5 242.35 184.25
Q 244.9443359375 184.0818359375 246.7 183.1 250.4396484375 178.0560546875 253.4 172.7
L 253.35 172.75
Q 247.7041015625 178.872265625 239.95 182.75
M 168.45 91.85
Q 171.3923828125 90.096875 173.9 88.15 154.84453125 85.694140625 144.5 91.95
L 144.5 96.5
Q 147.7572265625 98.575390625 151.2 99.3 161.161328125 96.1771484375 168.45 91.85 Z"/>

<path fill="#E5C291" stroke="none" d="
M 158.5 110.3
L 152.9 116.35
Q 149.3798828125 123.237109375 145.55 129.95 143.6189453125 133.4271484375 141.55 136.8 141.591796875 136.8634765625 141.6 136.9 141.568359375 136.918359375 141.5 136.9 139.381640625 140.56640625 137.15 144.15 138.1080078125 144.0490234375 138.65 143.95 140.5375 141.596875 143.15 140.15 145.25859375 137.6171875 147.25 135.05 151.1033203125 130.1287109375 154.55 125.1 155.228515625 117.40078125 158.5 110.3 Z"/>

<path fill="#E5AE75" stroke="none" d="
M 152.9 116.35
L 158.5 110.3
Q 155.228515625 117.40078125 154.55 125.1 155.1126953125 124.266796875 155.65 123.4 156.3458984375 122.43125 157 121.4 159.9111328125 111.63515625 164.9 100.7 162.37265625 101.545703125 159.9 102.05 156.5478515625 109.290625 152.9 116.35 Z"/>

<path fill="#EB9C5B" stroke="none" d="
M 132.75 83.95
Q 129.2962890625 78.554296875 126.1 71.25 126.4 90.2369140625 134.85 98.85 135.258984375 99.0560546875 135.65 99.25 145.9970703125 101.9330078125 151.2 99.3 147.7572265625 98.575390625 144.5 96.5 138.2865234375 92.6474609375 132.75 83.95
M 230.8 97.35
L 208.3 91.6
Q 210.5529296875 107.9376953125 216.4 121.9 218.1890625 117.1001953125 217.3 111.25
L 216.2 101.45 215.45 94.75 216.2 101.45
Q 218.8017578125 101.77265625 221.25 102.4 229.2400390625 104.4990234375 235.7 109.95 236.5 105.8923828125 237.15 101.3 235.4931640625 98.50859375 230.8 97.35 Z"/>

<path fill="#F6B86B" stroke="none" d="
M 280.5 174.05
Q 280.486328125 174.0001953125 280.45 173.95 277.68515625 170.53046875 276.25 162.8 275.86484375 173.89921875 276.9 185.9 285.3869140625 198.0888671875 298.35 203.8 302.50546875 205.63359375 307.1 206.8 303.4962890625 205.5072265625 300.25 202.25 283.4580078125 186.90625 280.5 174.05 Z"/>

<path fill="#DEBE83" stroke="none" d="
M 250.45 193.15
Q 249.946484375 193.6833984375 249.4 194.15 253.8763671875 197.4693359375 260.1 199.7
L 250.45 193.15 Z"/>

<path fill="#F6EAC3" stroke="none" d="
M 253.25 190.15
Q 251.8986328125 191.698828125 250.45 193.15
L 260.1 199.7
Q 253.8763671875 197.4693359375 249.4 194.15 249.0203125 194.594921875 248.6 195 248.4736328125 195.112109375 248.35 195.2 254.2470703125 198.952734375 259.5 201.1
L 259.5 201.1
Q 260.1705078125 201.3771484375 260.85 201.65 286.19921875 211.7548828125 313.65 208.65 313.9619140625 208.6337890625 314.25 208.6 308.3080078125 208.8806640625 290.8 206.1 271.9591796875 201.4421875 253.25 190.15 Z"/>

<path fill="#2C1213" stroke="none" d="
M 276.5 158.2
Q 276.353515625 160.49375 276.25 162.8 277.68515625 170.53046875 280.45 173.95 279.884375 171.4021484375 279.85 168.95 280.7341796875 168.6576171875 281.55 168.25 278.8548828125 162.446875 276.8 154.4 276.6298828125 156.29921875 276.5 158.2 Z"/>

<path fill="#F1D0AC" stroke="none" d="
M 276.25 162.8
Q 276.353515625 160.49375 276.5 158.2 271.9244140625 146.55625 269.4 146.75 270.284375 153.6990234375 271.25 159.95 272.2857421875 166.26015625 273.45 171.85 275.033203125 179.5556640625 276.9 185.9 275.86484375 173.89921875 276.25 162.8 Z"/>

<path fill="#D3A385" stroke="none" d="
M 268.5 138.7
Q 268.9576171875 142.8484375 269.4 146.75 271.9244140625 146.55625 276.5 158.2 276.6298828125 156.29921875 276.8 154.4
L 274 149.15 268.5 138.7 Z"/>

<path fill="#EBA67D" stroke="none" d="
M 269.4 146.75
Q 268.9576171875 142.8484375 268.5 138.7 267.3515625 134.8310546875 264.9 131.85 264.09765625 148.6404296875 257.85 163.55 255.9046875 168.199609375 253.4 172.65
L 253.4 172.7
Q 250.4396484375 178.0560546875 246.7 183.1 259.508203125 172.7775390625 265.2 156.3 265.6716796875 163.07265625 268.6 166.75 270.073046875 163.432421875 271.25 159.95 270.284375 153.6990234375 269.4 146.75 Z"/>

<path fill="#F1DBBD" stroke="none" d="
M 253.7 129.25
Q 255.6927734375 137.5361328125 256.75 147.5 258.8404296875 142.0064453125 257.8 131.4 254.925 126.29453125 252.05 123.2 252.94375 126.1015625 253.7 129.25 Z"/>

<path fill="#E9B07C" stroke="none" d="
M 246.25 109.3
Q 249.6505859375 115.351171875 252.05 123.2 254.925 126.29453125 257.8 131.4 258.8404296875 142.0064453125 256.75 147.5 257.2134765625 151.7626953125 257.5 156.3 257.7267578125 159.832421875 257.85 163.55 264.09765625 148.6404296875 264.9 131.85 257.3369140625 120.02265625 246.25 109.3 Z"/>

<path fill="#EFC197" stroke="none" d="
M 223.5 189.55
Q 223.7505859375 186.765625 223.05 185.5 203.1236328125 191.325 193.3 189.65 198.9119140625 192.644140625 215.45 190.7 219.1939453125 190.2599609375 223.5 189.55 Z"/>

<path fill="#F1C5A1" stroke="none" d="
M 237.2 194.45
Q 235.8884765625 195.813671875 234.5 197.15 229.818359375 201.7505859375 224.4 206.1 227.5640625 205.38359375 230.4 204.5 231.4880859375 204.1759765625 232.5 203.8 236.455078125 202.49375 239.8 200.8 240.2009765625 200.6328125 240.6 200.4 245.012890625 198.119921875 248.35 195.2 248.4736328125 195.112109375 248.6 195 249.0203125 194.594921875 249.4 194.15 249.946484375 193.6833984375 250.45 193.15 251.8986328125 191.698828125 253.25 190.15 258.8900390625 183.976953125 263.15 177.1 266.2267578125 172.116015625 268.6 166.75 265.6716796875 163.07265625 265.2 156.3 259.508203125 172.7775390625 246.7 183.1 245.7802734375 184.433984375 244.75 185.7 243.7841796875 186.9927734375 242.75 188.25 241.6373046875 189.5689453125 240.45 190.85 238.8865234375 192.674609375 237.2 194.45 Z"/>

<path fill="#E18D5F" stroke="none" d="
M 229.95 178.35
Q 226 179.575 224.6 180.8 225.1787109375 185.108203125 226 189.15 226.302734375 190.6435546875 226.65 192.1 227.36640625 195.2607421875 228.25 198.25
L 231.4 197.7
Q 230.36640625 187.7802734375 235.35 190.35
L 233.5 186.2 229.95 178.35 Z"/>

<path fill="#EC917D" stroke="none" d="
M 231.5 176.2
Q 231.416796875 176.7861328125 231.55 177.55 234.40625 179.5529296875 237.85 181.55 245.40546875 178.2201171875 253.35 172.75 253.390234375 172.712890625 253.4 172.65 255.9046875 168.199609375 257.85 163.55 257.7267578125 159.832421875 257.5 156.3 255.810546875 158.23125 255.25 159.65 253.975 163.475 251.6 167.6 248.24453125 172.681640625 233 174.6 231.776953125 175.041796875 231.5 176.2 Z"/>

<path fill="#B66864" stroke="none" d="
M 229.95 178.35
L 231.55 177.55
Q 231.416796875 176.7861328125 231.5 176.2
L 224.3 177.85
Q 224.45 179.633203125 224.6 180.8 226 179.575 229.95 178.35 Z"/>

<path fill="#854B44" stroke="none" d="
M 224.3 175.95
Q 224.26015625 176.7294921875 224.3 177.85
L 231.5 176.2
Q 231.776953125 175.041796875 233 174.6 229.6232421875 175.3484375 224.3 175.95 Z"/>

<path fill="#EBBD9D" stroke="none" d="
M 242.35 184.25
L 241.15 183.5
Q 238.7771484375 186.75625 242.75 188.25 243.7841796875 186.9927734375 244.75 185.7
L 242.35 184.25 Z"/>

<path fill="#E8845E" stroke="none" d="
M 239.95 182.75
Q 238.8724609375 182.1529296875 237.85 181.55 234.40625 179.5529296875 231.55 177.55
L 229.95 178.35 233.5 186.2
Q 237.1498046875 189.3748046875 240.45 190.85 241.6373046875 189.5689453125 242.75 188.25 238.7771484375 186.75625 241.15 183.5
L 239.95 182.75 Z"/>

<path fill="#EDB6AB" stroke="none" d="
M 237.85 181.55
Q 238.8724609375 182.1529296875 239.95 182.75 247.7041015625 178.872265625 253.35 172.75 245.40546875 178.2201171875 237.85 181.55 Z"/>

<path fill="#DC7C5E" stroke="none" d="
M 215.45 190.7
Q 216.8208984375 191.7755859375 216.6 192.8 217.365625 196.1263671875 218.85 198.5 219.757421875 198.5853515625 220.65 198.6 217.312109375 189.9330078125 226.65 192.1 226.302734375 190.6435546875 226 189.15 224.728515625 189.3681640625 223.5 189.55 219.1939453125 190.2599609375 215.45 190.7 Z"/>

<path fill="#492C32" stroke="none" d="
M 216.6 192.8
Q 215.998046875 196.0234375 213.6 197.75 216.29765625 198.2908203125 218.85 198.5 217.365625 196.1263671875 216.6 192.8 Z"/>

<path fill="#EBA167" stroke="none" d="
M 213.6 197.75
Q 208.647265625 196.798828125 203.25 194.8 206.886328125 198.5078125 211.1 201.05 216.3107421875 204.2453125 222.4 205.65 223.3908203125 205.9130859375 224.4 206.1 229.818359375 201.7505859375 234.5 197.15
L 231.4 197.7 228.25 198.25
Q 224.6 198.8072265625 220.65 198.6 219.757421875 198.5853515625 218.85 198.5 216.29765625 198.2908203125 213.6 197.75 Z"/>

<path fill="#47343B" stroke="none" d="
M 195.2 186.6
Q 196.7326171875 187.101953125 197.05 188.1 203.5736328125 183.419921875 208.9 186.5 215.88515625 184.391015625 224.6 180.8 224.45 179.633203125 224.3 177.85 224.26015625 176.7294921875 224.3 175.95 217.5373046875 176.74140625 206.95 175.85 203.7306640625 177.115625 201.3 178.8 196.8076171875 181.96171875 195.2 186.6 Z"/>

<path fill="#E8966F" stroke="none" d="
M 194 189.6
Q 193.644140625 189.636328125 193.3 189.65 203.1236328125 191.325 223.05 185.5 223.7505859375 186.765625 223.5 189.55 224.728515625 189.3681640625 226 189.15 225.1787109375 185.108203125 224.6 180.8 215.88515625 184.391015625 208.9 186.5 200.053125 189.2474609375 194 189.6 Z"/>

<path fill="#FBF5E3" stroke="none" d="
M 201.3 178.8
Q 198.019921875 176.7150390625 194.5 177.1 195.0193359375 181.6724609375 193.55 186.65 194.1806640625 186.4177734375 195.2 186.6 196.8076171875 181.96171875 201.3 178.8 Z"/>

<path fill="#DC9777" stroke="none" d="
M 194.5 177.1
Q 198.019921875 176.7150390625 201.3 178.8 203.7306640625 177.115625 206.95 175.85 204.9671875 175.7017578125 202.7 175.55 196.59921875 172.488671875 191.75 168.65 194.0669921875 172.6986328125 194.5 177.1 Z"/>

<path fill="#E4D0D9" stroke="none" d="
M 164.9 196.8
Q 164.530859375 196.629296875 164.15 196.45 155.0833984375 192.091015625 148.25 184.4 149.494921875 191.209765625 152.15 197.4 157.33125 197.3146484375 163.05 200.9
L 164.9 196.8 Z"/>

<path fill="#FDE6C7" stroke="none" d="
M 164.15 196.45
Q 164.530859375 196.629296875 164.9 196.8
L 163.05 200.9
Q 163.984375 201.4927734375 164.9 202.15 170.878125 189.341796875 168.85 182.25 166.35 173.6564453125 162.55 168.15 161.55703125 168.2939453125 160.25 168.35 160.596875 172.51640625 161.1 176.7 159.59375 172.7052734375 158.4 168.85 154.9337890625 167.54453125 152.35 171.7 149.838671875 175.674609375 148.1 183.55 148.172265625 183.978515625 148.25 184.4 155.0833984375 192.091015625 164.15 196.45 165.4921875 194.296875 165.85 190.8 165.4921875 194.296875 164.15 196.45 Z"/>

<path fill="#D95F52" stroke="none" d="
M 181.85 194.9
Q 180.231640625 196.5220703125 179.8 196.85 183.7388671875 194.5767578125 186.95 193.85 185.80625 195.7419921875 187.35 197.25 187.762890625 196.1083984375 189.4 194.05 187.762890625 196.1083984375 187.35 197.25 186.8203125 198.6671875 188.2 198.65 189.7837890625 197.060546875 190.8 195.35 191.796875 193.8296875 192.3 192.2 190.86875 191.8916015625 189.9 192.2 190.86875 191.8916015625 192.3 192.2 191.796875 193.8296875 190.8 195.35 192.1498046875 193.5900390625 192.8 196.7 193.17421875 195.9611328125 193.6 195.25 193.17421875 195.9611328125 192.8 196.7 190.9126953125 200.455078125 190.4 204.95 189.8810546875 207.594140625 189.5 210.35 190.999609375 206.3 194.25 202.25 194.7328125 207.3130859375 196.1 211.05 195.9306640625 207.7259765625 198.15 204.8 198.0712890625 200.7056640625 198.1 196.3 207.0412109375 212.2244140625 223 221.8 221.8201171875 220.9650390625 220.7 220.1 212.08046875 213.3798828125 207.7 204.9 214.1205078125 207.4025390625 221.7 212.1 216.93984375 208.622265625 212.45 204.4
L 210.35 201.85
Q 209.750390625 202.0939453125 208.7 202.1 203.725 198.2509765625 198.5 192.05 203.725 198.2509765625 208.7 202.1 209.750390625 202.0939453125 210.35 201.85 210.9806640625 201.5970703125 211.1 201.05 206.886328125 198.5078125 203.25 194.8 208.647265625 196.798828125 213.6 197.75 215.998046875 196.0234375 216.6 192.8 216.8208984375 191.7755859375 215.45 190.7 198.9119140625 192.644140625 193.3 189.65 193.644140625 189.636328125 194 189.6 200.053125 189.2474609375 208.9 186.5 203.5736328125 183.419921875 197.05 188.1 196.7326171875 187.101953125 195.2 186.6 194.1806640625 186.4177734375 193.55 186.65 192.765625 186.9681640625 192.6 187.95 192.0228515625 187.73515625 191.55 188.05 191.107421875 188.39140625 190.75 189.15 184.0240234375 192.7763671875 181.85 194.9
M 193.3 192
Q 194.9853515625 191.977734375 194.75 194.4 194.9853515625 191.977734375 193.3 192 193.101171875 189.29765625 191.15 190.1 193.101171875 189.29765625 193.3 192
M 193 194.85
Q 194.7822265625 194.5375 196.95 194.75 196.820703125 193.1638671875 197.8 192.55 196.820703125 193.1638671875 196.95 194.75 197.2837890625 194.8060546875 197.6 194.85 197.2837890625 194.8060546875 196.95 194.75 194.7822265625 194.5375 193 194.85 Z"/>

<path fill="#E49473" stroke="none" d="
M 179.8 196.85
Q 179.725390625 196.905859375 179.65 196.95 178.35546875 198.28203125 177.3 199.7 170.7177734375 204.04765625 177.7 209.35
L 182.25 210.8
Q 185.141015625 211.4142578125 187.7 210.7 188.617578125 207.74765625 190.4 204.95 190.9126953125 200.455078125 192.8 196.7 192.1498046875 193.5900390625 190.8 195.35 189.7837890625 197.060546875 188.2 198.65 186.8203125 198.6671875 187.35 197.25 185.80625 195.7419921875 186.95 193.85 183.7388671875 194.5767578125 179.8 196.85 Z"/>

<path fill="#ECC772" stroke="none" d="
M 180.65 167.2
Q 180.6958984375 167.358984375 180.75 167.5 186.43046875 171.5091796875 190.2 171.35 182.5732421875 167.796484375 178 158.65 178.8302734375 162.44609375 180.65 167.2 Z"/>

<path fill="#F6EBB6" stroke="none" d="
M 164.3 164.6
Q 164.82421875 165.88671875 165.35 167.1 170.5171875 178.4349609375 179.35 184.25 169.0783203125 170.7876953125 162.5 145.95 161.14375 151.875 162 157.7 163.026171875 161.3541015625 164.3 164.6 Z"/>

<path fill="#4A393E" stroke="none" d="
M 170.4 146.75
Q 169.6517578125 143.807421875 169.05 140.55 167.9833984375 151.2591796875 173.8 168.2
L 184.6 175.8 173.8 168.2
Q 176.48359375 175.9765625 180.6 185.05 179.9744140625 184.6748046875 179.35 184.25 170.5171875 178.4349609375 165.35 167.1 164.6943359375 167.833203125 162.55 168.15 166.35 173.6564453125 168.85 182.25 170.878125 189.341796875 164.9 202.15 163.984375 201.4927734375 163.05 200.9 157.33125 197.3146484375 152.15 197.4 152.9900390625 199.2908203125 153.9 201.1 158.0478515625 204.0986328125 161.8 205.8
L 163.15 202.35 164.15 206.65
Q 171.1958984375 210.16171875 177.7 212.2 176.8140625 210.1548828125 177.7 209.35 172.4236328125 207.1751953125 171.2 201.3 174.1625 198.0990234375 179.65 196.95 179.725390625 196.905859375 179.8 196.85 180.231640625 196.5220703125 181.85 194.9 184.0240234375 192.7763671875 190.75 189.15 191.107421875 188.39140625 191.55 188.05
L 186.1 178.6 191.55 188.05
Q 192.0228515625 187.73515625 192.6 187.95 192.765625 186.9681640625 193.55 186.65 195.0193359375 181.6724609375 194.5 177.1 194.0669921875 172.6986328125 191.75 168.65 181.80703125 160.8369140625 176.8 150.25 176.8373046875 150.730859375 177.45 155.6 177.630859375 157.0541015625 178 158.65 182.5732421875 167.796484375 190.2 171.35 186.43046875 171.5091796875 180.75 167.5 173.933984375 160.619140625 170.4 146.75 Z"/>

<path fill="#FDE3C9" stroke="none" d="
M 176.4 134.05
Q 172.214453125 139.5015625 170.4 146.75 173.933984375 160.619140625 180.75 167.5 180.6958984375 167.358984375 180.65 167.2 178.8302734375 162.44609375 178 158.65 177.630859375 157.0541015625 177.45 155.6 176.8373046875 150.730859375 176.8 150.25 176.265625 142.309765625 176.4 134.05 Z"/>

<path fill="#DFA47B" stroke="none" d="
M 169.05 140.55
Q 169.0375 140.49296875 169 140.4 167.703515625 144.3185546875 166.65 148.6 163.1525390625 129.3990234375 164.75 117.1 165.673046875 107.5724609375 170.5 98.45 167.672265625 99.784765625 164.9 100.7 159.9111328125 111.63515625 157 121.4 156.57421875 122.8267578125 156.2 124.2 156.1625 124.328515625 156.1 124.45 153.5736328125 133.379296875 153.85 143.55
L 153.85 143.6
Q 155.1875 140.137890625 156.5 138.7 154.8900390625 151.87109375 158.2 163.15 158.3615234375 152.948046875 159.45 148.3 159.471875 146.848828125 159.5 145.4 158.91796875 141.1041015625 158.6 136.4 158.91796875 141.1041015625 159.5 145.4 160.4203125 152.0396484375 162 157.7 161.14375 151.875 162.5 145.95 169.0783203125 170.7876953125 179.35 184.25 179.9744140625 184.6748046875 180.6 185.05 176.48359375 175.9765625 173.8 168.2 167.9833984375 151.2591796875 169.05 140.55 Z"/>

<path fill="#FDB798" stroke="none" d="
M 169 140.4
Q 169.0375 140.49296875 169.05 140.55 169.6517578125 143.807421875 170.4 146.75 172.214453125 139.5015625 176.4 134.05 176.523828125 129.0583984375 176.85 123.95 172.1904296875 131.0146484375 169 140.4 Z"/>

<path fill="#F2B28B" stroke="none" d="
M 221.25 102.4
Q 218.8017578125 101.77265625 216.2 101.45
L 217.3 111.25
Q 222.1259765625 129.5818359375 227.55 132.75 228.76328125 130.937890625 229.85 128.7 231.7615234375 124.840234375 233.3 119.7 231.398046875 123.85703125 228.15 126.5 223.3091796875 117.187109375 221.25 102.4 Z"/>

<path fill="#DF8C65" stroke="none" d="
M 242.95 105.9
Q 242.255859375 115.358984375 238.85 122.9 238.769140625 126.9875 237.3 131.05 242.255078125 123.3369140625 244.35 113.3 248.9390625 119.326171875 251.2 128.65 252.8333984375 128.6578125 253.7 129.25 252.94375 126.1015625 252.05 123.2 249.6505859375 115.351171875 246.25 109.3
L 246.25 109.25 245.7 108.7 242.95 105.9 Z"/>

<path fill="#E9DABA" stroke="none" d="
M 233.3 119.7
Q 234.6390625 115.28984375 235.7 109.95 229.2400390625 104.4990234375 221.25 102.4 223.3091796875 117.187109375 228.15 126.5 231.398046875 123.85703125 233.3 119.7 Z"/>

<path fill="#D89A80" stroke="none" d="
M 237.15 101.3
Q 236.5 105.8923828125 235.7 109.95 234.6390625 115.28984375 233.3 119.7 231.7615234375 124.840234375 229.85 128.7 230.45859375 131.0955078125 231.75 132.1 235.7330078125 125.8470703125 237.25 115.2 237.6158203125 108.99765625 237.15 101.3 Z"/>

<path fill="#DFAC7D" stroke="none" d="
M 242.95 105.9
L 237.15 101.3
Q 237.6158203125 108.99765625 237.25 115.2 236.72890625 124.780078125 234.25 130.8 236.984375 127.15859375 238.85 122.9 242.255859375 115.358984375 242.95 105.9 Z"/>

<path fill="#EDDCB4" stroke="none" d="
M 197.4 97.7
Q 187.7962890625 95.1818359375 171.1 97.35 170.7955078125 97.9119140625 170.5 98.45 165.673046875 107.5724609375 164.75 117.1 163.1525390625 129.3990234375 166.65 148.6 167.703515625 144.3185546875 169 140.4 172.1904296875 131.0146484375 176.85 123.95 177.287890625 123.337109375 177.7 122.75 186.6767578125 108.212890625 197.4 97.7 Z"/>

<path fill="#EED5A0" stroke="none" d="
M 173.7 91.6
Q 169.084765625 92.919140625 168.45 91.85 161.161328125 96.1771484375 151.2 99.3 145.9970703125 101.9330078125 135.65 99.25 139.5990234375 101.123046875 143.65 102.05 148.582421875 103.178515625 153.7 102.9 164.4880859375 98.826171875 173.7 91.6 Z"/>

<path fill="#E9AF63" stroke="none" d="
M 173.9 88.15
Q 171.3923828125 90.096875 168.45 91.85 169.084765625 92.919140625 173.7 91.6 164.4880859375 98.826171875 153.7 102.9 156.76796875 102.741015625 159.9 102.05 162.37265625 101.545703125 164.9 100.7 167.672265625 99.784765625 170.5 98.45 170.7955078125 97.9119140625 171.1 97.35 171.6076171875 96.4484375 172.15 95.55 171.6076171875 96.4484375 171.1 97.35 187.7962890625 95.1818359375 197.4 97.7 201.15078125 94.06328125 205.1 90.9 192.1744140625 87.9572265625 173.9 88.15 Z"/>

<path fill="#A48698" stroke="none" d="
M 295.8 74.9
L 295.8 73.3 295.8 67.15
Q 286.6810546875 58.0935546875 271.2 46.85 267.0171875 51.5130859375 264.4 56.35 279.539453125 67.6294921875 293.8 76.8 295.8185546875 76.274609375 295.8 74.9 Z"/>

<path fill="#3E3236" stroke="none" d="
M 269.4 43.5
Q 269.7259765625 45.1875 271.2 46.85 286.6810546875 58.0935546875 295.8 67.15
L 295.8 73.3 301.05 81.8 300 89.7
Q 295.4404296875 111.6330078125 289.6 126.75
L 281.6 134
Q 273.75 129.03671875 266.15 119.75 252.955859375 102.399609375 231.85 92.35 210.7912109375 82.2900390625 190.7 80.05 181.9740234375 67.9744140625 179.55 53.05 178.6994140625 45.6892578125 186.05 33.15 193.447265625 20.662109375 204.05 7.6 179.776953125 25.43359375 158.8 52.7 146.4375 68.7125 134.5 80.85
L 132.75 83.95
Q 138.2865234375 92.6474609375 144.5 96.5
L 144.5 91.95
Q 154.84453125 85.694140625 173.9 88.15 192.1744140625 87.9572265625 205.1 90.9
L 208.3 91.6 230.8 97.35
Q 235.4931640625 98.50859375 237.15 101.3
L 242.95 105.9 245.7 108.7 246.25 109.25 246.25 109.3
Q 257.3369140625 120.02265625 264.9 131.85 267.3515625 134.8310546875 268.5 138.7
L 274 149.15
Q 283.5859375 141.4970703125 291.1 132.65 296.6478515625 127.42109375 300.3 118.95 296.6478515625 127.42109375 291.1 132.65 283.5859375 141.4970703125 274 149.15
L 276.8 154.4
Q 278.8548828125 162.446875 281.55 168.25 287.5646484375 165.59375 291.4 158.6 296.41328125 147.8287109375 301 130
L 301.45 128.8
Q 308.4560546875 103.4919921875 318.3 78.9
L 300 67.5
Q 284.217578125 55.85703125 269.4 43.5
M 162.3 65.35
L 178 39.6 162.3 65.35
M 160.95 69
Q 160.40078125 74.36171875 162.5 79.9 160.40078125 74.36171875 160.95 69 Z"/>

<path fill="#52454C" stroke="none" d="
M 271.2 46.85
Q 269.7259765625 45.1875 269.4 43.5 268.6599609375 42.8875 267.9 42.25 255.393359375 28.8015625 223.75 27.25 209.869140625 27.169140625 196.8 27.9 209.869140625 27.169140625 223.75 27.25
L 205.45 6.9
Q 204.69140625 7.4361328125 204.05 7.6 193.447265625 20.662109375 186.05 33.15 178.6994140625 45.6892578125 179.55 53.05 181.9740234375 67.9744140625 190.7 80.05 210.7912109375 82.2900390625 231.85 92.35 252.955859375 102.399609375 266.15 119.75 273.75 129.03671875 281.6 134
L 289.6 126.75
Q 295.4404296875 111.6330078125 300 89.7
L 301.05 81.8 295.8 73.3 295.8 74.9
Q 295.8185546875 76.274609375 293.8 76.8 279.539453125 67.6294921875 264.4 56.35 267.0171875 51.5130859375 271.2 46.85
M 250.1 63.6
Q 263.8412109375 74.3705078125 276 88.9 273.77578125 92.5208984375 270 96.05 257.254296875 82.8275390625 244.5 73.25 226.125 65.7572265625 207.2 63.2 207.3443359375 59.080078125 207.75 53.85 220.416796875 52.4103515625 250.1 63.6
M 238.25 46.5
Q 223.121875 41.2796875 208 42.05 206.9248046875 34.5646484375 208.45 27.8 227.6765625 26.680078125 244.15 31.8 237.8720703125 48.412890625 238.25 46.5 Z"/>

<path fill="#B195A8" stroke="none" d="
M 208 42.05
Q 223.121875 41.2796875 238.25 46.5 237.8720703125 48.412890625 244.15 31.8 227.6765625 26.680078125 208.45 27.8 206.9248046875 34.5646484375 208 42.05 Z"/>

<path fill="#A58998" stroke="none" d="
M 276 88.9
Q 263.8412109375 74.3705078125 250.1 63.6 220.416796875 52.4103515625 207.75 53.85 207.3443359375 59.080078125 207.2 63.2 226.125 65.7572265625 244.5 73.25 257.254296875 82.8275390625 270 96.05 273.77578125 92.5208984375 276 88.9 Z"/>

<path fill="#5F414B" stroke="none" d="
M 330.4 304.7
Q 329.942578125 304.45234375 329.45 304.2 326.484375 306.007421875 319.6 304.7 309.3 301.5818359375 299 295.1 297.6759765625 299.9833984375 295.5 303.9 324.621875 313.234375 339.1 314.45 335.578515625 311.8591796875 330.4 304.7 Z"/>

<path fill="#513D44" stroke="none" d="
M 324 274.5
Q 332.85 275.424609375 341.7 278.9 336.418359375 267.88671875 326.05 259.95 313.9619140625 259.098046875 301.9 257.8 312.6404296875 269.3990234375 324 274.5 Z"/>

<path fill="#554148" stroke="none" d="
M 330.4 281.7
Q 340.5 286.5404296875 350.4 289.1 352.484765625 297.2 352.7 305.3 346.944921875 307.78984375 340 307.9
L 334.2 304.7 330.4 304.7
Q 335.578515625 311.8591796875 339.1 314.45 344.6900390625 314.9298828125 348.1 314.2 372.690625 284.6544921875 378.7 261.9 352.3115234375 261.912109375 326.05 259.95 336.418359375 267.88671875 341.7 278.9 332.85 275.424609375 324 274.5 312.6404296875 269.3990234375 301.9 257.8 296.9376953125 254.9853515625 292.6 250.2 294.6900390625 254.98046875 296.25 259.65
L 296.25 259.7
Q 308.4419921875 270.5791015625 326.2 276
L 330.4 281.7 Z"/>

<path fill="#7A5A67" stroke="none" d="
M 330.4 281.7
L 335.8 289 330.4 281.7 326.2 276
Q 308.4419921875 270.5791015625 296.25 259.7 300.625 272.771484375 301.1 285.35 315.4771484375 296.511328125 329.45 304.2 329.942578125 304.45234375 330.4 304.7
L 334.2 304.7 340 307.9
Q 346.944921875 307.78984375 352.7 305.3 352.484765625 297.2 350.4 289.1 340.5 286.5404296875 330.4 281.7 Z"/>
</g>

<path id="Layer1_0_1_STROKES" stroke="#000000" stroke-opacity="0.8" stroke-width="0.5" stroke-linejoin="round" stroke-linecap="round" fill="none" d="
M 195 103
Q 201.5654296875 104.3455078125 207.45 109 207.1740234375 110.25 207.45 111.5
M 236.6 148.15
Q 242.1490234375 155.4033203125 250.75 148.85
M 239.35 136.35
Q 237.6033203125 138.35390625 236.8 140.6 235.565625 144.083203125 236.6 148.15
M 207.325 118.875
Q 207.571875 124.354296875 206.25 127.1
M 201.4 132.3
Q 195.3060546875 136.640625 188.525 131.925 186.27734375 130.3646484375 183.95 127.8
M 188.55 114.6
Q 185.3416015625 117.2734375 184.75 120.65 183.8646484375 125.546484375 188.525 131.925
M 195.65 152.3
Q 196.69296875 152.3095703125 197.7 152.35 211.3275390625 152.9990234375 217.85 160.6 214.823046875 162.2330078125 213.35 164.1 191.1265625 162.5109375 197.7 152.35
M 242 126.35
Q 243.32578125 123.9560546875 252.3 126.9"/>

<path id="Layer0_0_1_STROKES" stroke="#000000" stroke-opacity="0.8" stroke-width="1" stroke-linejoin="round" stroke-linecap="round" fill="none" d="
M 330.425 281.725
L 335.8 289
M 339.125 314.45
Q 344.6900390625 314.9298828125 348.1 314.2 372.690625 284.6544921875 378.7 261.9 352.3115234375 261.912109375 326.05 259.975
M 324 274.5
Q 312.6404296875 269.3990234375 301.9 257.8 296.9376953125 254.9853515625 292.625 250.225 294.6900390625 254.98046875 296.25 259.675
L 296.25 259.7
M 326.2 276
L 330.425 281.725
M 299 295.1
Q 297.6759765625 299.9833984375 295.5 303.9 324.621875 313.234375 339.125 314.45
M 269.425 43.525
Q 268.6599609375 42.8875 267.9 42.25 255.393359375 28.8015625 223.75 27.25
M 204.05 7.6
Q 179.776953125 25.43359375 158.8 52.7 146.4375 68.7125 134.5 80.85
L 132.75 83.975
Q 138.2865234375 92.6474609375 144.5 96.525
M 269.425 43.525
Q 284.217578125 55.85703125 300 67.5
L 318.3 78.9
Q 308.4560546875 103.4919921875 301.45 128.8
L 301.025 130.025
Q 296.41328125 147.8287109375 291.4 158.6 287.5646484375 165.59375 281.575 168.275 280.7341796875 168.6576171875 279.85 168.95 279.884375 171.4021484375 280.475 173.95
M 280.5 174.05
Q 283.4580078125 186.90625 300.25 202.25 322.9576171875 195.994921875 336.1 153 333.2861328125 197.671484375 314.25 208.6 313.9619140625 208.6337890625 313.675 208.675 286.19921875 211.7548828125 260.85 201.65
M 259.525 201.125
Q 266.005078125 208.32734375 271.475 215.4 285.23125 233.2005859375 292.625 250.225
M 204.05 7.6
Q 204.69140625 7.4361328125 205.45 6.9
L 223.75 27.25
M 162.55 168.15
Q 164.6943359375 167.833203125 165.375 167.1
M 164.325 164.6
L 159.775 161.6
M 160.25 168.35
Q 161.55703125 168.2939453125 162.55 168.15
M 161.8 205.8
L 163.15 202.35 164.15 206.65
M 259.525 201.125
L 259.5 201.1
Q 260.1705078125 201.3771484375 260.85 201.65
M 134.85 98.85
Q 126.4 90.2369140625 126.1 71.25 129.2962890625 78.554296875 132.75 83.975
M 141.575 136.825
Q 141.591796875 136.8634765625 141.6 136.9 141.568359375 136.918359375 141.525 136.925
M 137.15 144.15
Q 138.1080078125 144.0490234375 138.65 143.95 140.5375 141.596875 143.15 140.15
M 135.25 99.25
Q 137.4013671875 118.07109375 141.325 135.65 141.4197265625 136.10859375 141.525 136.575
L 141.575 136.825
M 141.525 136.925
Q 129.679296875 143.7865234375 107.8 136.35 123.934375 146.126953125 137.15 144.15
M 135.25 99.25
Q 135.047265625 99.0537109375 134.85 98.85
M 151.2 147.925
Q 151.36953125 147.401953125 151.55 146.9
M 145 143
Q 144.539453125 141.66796875 143.15 140.15
M 100.25 186.025
Q 89.967578125 180.744140625 91.8 156.6 95.95859375 174.74140625 109 182.6 115.2 179.4060546875 121.4 172.4 131.2125 154.9177734375 145 143
M 100.25 186.025
Q 105.3357421875 188.6232421875 113.4 186.6
M 155.575 157.825
L 149.975 152.125
Q 149.3494140625 154.684375 148.9 157.5 147.5095703125 166.2298828125 147.825 177.425 147.8986328125 180.4017578125 148.1 183.55 149.838671875 175.674609375 152.35 171.7 154.9337890625 167.54453125 158.4 168.85
M 136.45 167.15
Q 136.99765625 167.355078125 139.9 164.25 139.954296875 164.0767578125 140 163.9
M 136.45 167.15
Q 133.7009765625 173.5162109375 131.85 177.95 124.2876953125 205.4537109375 123.35 241.3 131.4529296875 226.9958984375 137.9 204.95 138.5787109375 202.640625 139.25 200.25 139.8267578125 198.1072265625 140.4 195.9 134.9376953125 183.8029296875 139.9 164.25
M 149.975 152.125
Q 150.5232421875 149.927734375 151.2 147.925
M 144.5 96.525
Q 147.7572265625 98.575390625 151.2 99.3
M 123.35 241.3
Q 123.4662109375 244.1392578125 123.775 246.9 125.90859375 266.273828125 137.325 281.7 138.349609375 276.09453125 140.3 271.6 140.9052734375 270.0232421875 141.5 268.475
M 113.025 254.25
Q 111.4705078125 254.5078125 110.275 257.1
M 107.35 259.95
Q 105.3 262.287890625 103.25 265.8 103.032421875 266.1302734375 102.825 266.45 92.3869140625 282.2171875 80.45 296.8
M 110.75 341.65
Q 113.5412109375 335.2796875 116.675 329.025
L 122.6 316 135.475 285.8
M 137.325 281.7
Q 140.800390625 286.4078125 145.15 290.75
M 225.5 243
Q 232.4505859375 255.88203125 237.275 262.15
M 140.3 271.6
Q 146.6306640625 267.467578125 154.4 252.9 156.1353515625 248.835546875 156.7 243.6 155.6880859375 241.01171875 164.1 233.9 161.4458984375 232.5041015625 165.9 224 164.082421875 219.32890625 164.2 212.375
M 141.5 268.475
Q 158.2748046875 224.037890625 161.125 211.55
M 107.35 259.95
Q 103.2982421875 252.7966796875 101.6 244.75 96.3234375 219.9212890625 113.4 186.6
M 110.75 341.65
Q 108.7353515625 346.2193359375 106.9 350.85
L 105.4 355.2 80.05 359.85 70.8 351.3
Q 64.616015625 345.3970703125 60.6 333.3 59.205859375 329.191796875 58.1 325.45 56.2806640625 319.887109375 57.45 310.4 69.227734375 303.997265625 80.45 296.8
M 122.6 316
L 126.85 317.35
Q 132.99921875 317.9853515625 129.1 314.15 126.0701171875 311.33515625 126.9 308.95 132.091015625 316.908984375 140.2 317.55 140.63984375 313.52265625 141.8 311.3 144.875390625 311.791796875 147.25 310.6 147.1091796875 314.22578125 148.2 317.5 149.65 317.8861328125 151.1 317.5 152.65 320.3107421875 154.2 321.1 153.6314453125 306.10546875 162.05 302.7 170.106640625 300.4140625 170.45 303.45 171.2251953125 319.0826171875 182.55 323.05 179.9765625 321.1638671875 178.9 317.7 178.723828125 315.1265625 187.125 317.35
L 187.125 317.3
M 243.9 268
Q 241.3345703125 267.394140625 237.275 262.15
M 251.7 257.4
Q 254.536328125 262.7787109375 257.35 267.625
M 290.925 288.25
Q 292.369140625 278.50390625 291.1 266.7 276.4654296875 241.048046875 245.825 206.275
M 231.5 224.7
Q 239.658203125 234.0044921875 244.7 250.3 245.2173828125 251.9634765625 245.7 253.7 246.4361328125 261.758984375 243.9 268
M 265.9 303.85
Q 266.4943359375 304.0865234375 267.15 304.55 266.626171875 306.57421875 269.2 307.6 274.82265625 307.9091796875 277.35 302.45
L 275.05 299.3
M 282.7 299.4
Q 285.3005859375 300.8140625 287.525 301.1 289.9150390625 295.1978515625 290.925 288.25
M 257.35 267.625
Q 266.7435546875 283.8078125 275.9 294.1 262.3365234375 287.496484375 249.3 272.9
M 301.125 285.375
Q 301.1947265625 286.889453125 301.2 288.4 300.888671875 287.4833984375 300.55 286.55 300.05234375 291.14140625 299 295.1
M 291.1 266.7
Q 297.2140625 277.405078125 300.55 286.55
M 296.25 259.7
Q 300.625 272.771484375 301.125 285.375
M 223 221.8
Q 222.283203125 222.9794921875 222.175 225.05 222.1 226.875 222.5 229.4
L 224.9 241.9
Q 225.20078125 242.462109375 225.5 243
M 223 221.8
L 229.1 225.7 231.5 224.7
M 254.15 311.8
Q 254.931640625 311.3951171875 255.7 310.9 262.25546875 308.2197265625 263.55 304.075 263.59453125 303.958984375 263.625 303.85 263.694921875 303.548046875 263.75 303.25
M 246.15 313.45
Q 243.0064453125 314.6689453125 239.55 313.85 238.545703125 310.775390625 241.55 306.6 240.90234375 301.8556640625 235.2 300.5 227.5541015625 301.3396484375 221.9 308.6 223.766015625 314.00078125 218.4 316.225 213.0427734375 318.4419921875 208.25 317.7 205.4798828125 317.0921875 212.15 313.1 205.78984375 313.6458984375 200.4 310.7 199.52421875 309.787890625 201 307.7 193.721875 306.979296875 191 310.6 188.076171875 314.1802734375 187.15 317.25 187.14140625 317.2806640625 187.125 317.3
M 187.125 317.35
Q 186.4123046875 319.5556640625 182.5 318.35 185.6876953125 331.5484375 193.55 341.1 194.04453125 344.61875 187.35 345.15 176.9958984375 333.907421875 169.95 320.35 165.761328125 312.3271484375 162.05 302.7
M 282.7 299.4
Q 281.573828125 302.523828125 277.35 302.45
M 265.9 303.85
Q 264.6130859375 303.3208984375 263.625 303.85
M 246.15 313.45
Q 250.3353515625 313.742578125 254.15 311.8
M 255.7 310.9
Q 256.2130859375 320.3193359375 257.85 322.85 260.6046875 330.590625 255.35 331.05 251.980078125 331.301171875 251.95 322.8 249.559765625 318.2099609375 246.15 313.45
M 295.5 303.9
Q 289.3310546875 316.3294921875 269.1 322.9 281.98671875 314.7896484375 287.525 301.1
M 240.6 200.425
Q 243.2654296875 203.3857421875 245.825 206.275
M 301.9 257.8
Q 313.9619140625 259.098046875 326.05 259.975"/>

<path id="Layer0_0_2_STROKES" stroke="#000000" stroke-opacity="0.8" stroke-width="0.85" stroke-linejoin="round" stroke-linecap="round" fill="none" d="
M 245.7 108.7
L 246.25 109.25 246.275 109.3
M 260.85 201.65
Q 260.1908203125 201.399609375 259.525 201.125
M 173.9 88.15
Q 171.3923828125 90.096875 168.45 91.85
M 153.7 102.9
Q 156.76796875 102.741015625 159.9 102.075 162.37265625 101.545703125 164.9 100.7 167.672265625 99.784765625 170.5 98.475 170.7955078125 97.9119140625 171.1 97.35 171.6076171875 96.4484375 172.15 95.55
M 205.1 90.9
Q 201.15078125 94.06328125 197.425 97.725 186.6767578125 108.212890625 177.7 122.75 177.287890625 123.337109375 176.875 123.95 176.523828125 129.0583984375 176.425 134.05 176.265625 142.309765625 176.8 150.25 181.80703125 160.8369140625 191.775 168.675 196.59921875 172.488671875 202.7 175.55 204.9671875 175.7017578125 206.95 175.85 217.5373046875 176.74140625 224.3 175.95 229.6232421875 175.3484375 233.025 174.6 248.24453125 172.681640625 251.6 167.6 253.975 163.475 255.25 159.65 255.810546875 158.23125 257.5 156.3 257.2134765625 151.7626953125 256.75 147.525 255.6927734375 137.5361328125 253.7 129.25
M 238.875 122.925
Q 236.984375 127.15859375 234.25 130.8 236.72890625 124.780078125 237.275 115.2
M 229.85 128.725
Q 228.76328125 130.937890625 227.55 132.75 222.1259765625 129.5818359375 217.3 111.25 218.1890625 117.1001953125 216.4 121.9 210.5529296875 107.9376953125 208.3 91.6
M 237.15 101.3
Q 236.5 105.8923828125 235.7 109.95 234.6390625 115.28984375 233.3 119.7 231.7615234375 124.840234375 229.85 128.725
M 237.275 115.2
Q 237.6158203125 108.99765625 237.15 101.3
M 242.95 105.9
Q 242.255859375 115.358984375 238.875 122.925
M 216.2 101.45
L 217.3 111.25
M 169.025 140.425
Q 169.0375 140.49296875 169.05 140.55 169.6517578125 143.807421875 170.4 146.75
M 169.025 140.425
Q 172.1904296875 131.0146484375 176.875 123.95
M 178 158.675
Q 177.630859375 157.0541015625 177.45 155.625 176.8373046875 150.730859375 176.8 150.25
M 165.375 167.1
Q 164.82421875 165.88671875 164.325 164.6
M 159.775 161.6
Q 159.9658203125 164.968359375 160.25 168.35
M 180.75 167.5
Q 180.6958984375 167.358984375 180.65 167.225 178.8302734375 162.44609375 178 158.675
M 180.75 167.5
Q 173.933984375 160.619140625 170.4 146.75
M 162 157.7
Q 163.026171875 161.3541015625 164.325 164.6
M 173.825 168.225
Q 176.48359375 175.9765625 180.6 185.05 179.9744140625 184.6748046875 179.375 184.275 170.5171875 178.4349609375 165.375 167.1
M 193.3 189.65
Q 193.644140625 189.636328125 194 189.625 200.053125 189.2474609375 208.9 186.525
M 213.625 197.775
Q 208.647265625 196.798828125 203.25 194.8 206.886328125 198.5078125 211.1 201.075 216.3107421875 204.2453125 222.4 205.675 223.3908203125 205.9130859375 224.4 206.1 229.818359375 201.7505859375 234.525 197.15
L 231.4 197.7 228.25 198.25
Q 224.6 198.8072265625 220.65 198.625 219.757421875 198.5853515625 218.85 198.5 216.29765625 198.2908203125 213.625 197.775 Z
M 215.45 190.7
Q 198.9119140625 192.644140625 193.3 189.65
M 223.5 189.575
Q 224.728515625 189.3681640625 226 189.15 225.1787109375 185.108203125 224.6 180.8 215.88515625 184.391015625 208.9 186.525
M 237.85 181.55
Q 238.8724609375 182.1529296875 239.95 182.75 247.7041015625 178.872265625 253.35 172.75
M 231.55 177.55
Q 234.40625 179.5529296875 237.85 181.55
M 229.95 178.35
L 233.5 186.225
Q 237.1498046875 189.3748046875 240.475 190.875 241.6373046875 189.5689453125 242.75 188.25
M 239.95 182.75
L 241.15 183.5 242.375 184.25
M 246.725 183.125
Q 250.4396484375 178.0560546875 253.4 172.725
M 253.35 172.75
Q 253.390234375 172.712890625 253.425 172.675 255.9046875 168.199609375 257.85 163.55 257.7267578125 159.832421875 257.5 156.3
M 224.3 175.95
Q 224.26015625 176.7294921875 224.325 177.85 224.45 179.633203125 224.6 180.8
M 226 189.15
Q 226.302734375 190.6435546875 226.65 192.1 227.36640625 195.2607421875 228.25 198.25
M 235.35 190.35
L 237.2 194.45
Q 238.8865234375 192.674609375 240.475 190.875
M 233.5 186.225
L 235.35 190.35
M 237.2 194.45
Q 235.8884765625 195.813671875 234.525 197.15
M 215.45 190.7
Q 219.1939453125 190.2599609375 223.5 189.575
M 169.05 140.55
Q 167.9833984375 151.2591796875 173.825 168.225
M 170.5 98.475
Q 165.673046875 107.5724609375 164.75 117.1 163.1525390625 129.3990234375 166.65 148.6 167.703515625 144.3185546875 169.025 140.425
M 252.05 123.2
Q 249.6505859375 115.351171875 246.275 109.3
M 269.425 146.75
Q 268.9576171875 142.8484375 268.525 138.725
M 253.7 129.25
Q 252.94375 126.1015625 252.05 123.2
M 276.275 162.8
Q 276.353515625 160.49375 276.5 158.225
M 269.425 146.75
Q 270.284375 153.6990234375 271.275 159.95 272.2857421875 166.26015625 273.45 171.85 275.033203125 179.5556640625 276.9 185.9 275.86484375 173.89921875 276.275 162.8
M 271.275 159.95
Q 270.073046875 163.432421875 268.6 166.775 266.2267578125 172.116015625 263.15 177.1
M 276.5 158.225
Q 276.6298828125 156.29921875 276.8 154.4
M 253.4 172.725
L 253.425 172.675
M 253.275 190.175
Q 251.8986328125 191.698828125 250.45 193.175
M 249.425 194.175
Q 249.0203125 194.594921875 248.6 195 248.4736328125 195.112109375 248.35 195.225 254.2470703125 198.952734375 259.525 201.125
M 246.725 183.125
Q 245.7802734375 184.433984375 244.775 185.725 243.7841796875 186.9927734375 242.75 188.25
M 263.15 177.1
Q 258.8900390625 183.976953125 253.275 190.175 271.9591796875 201.4421875 290.8 206.1 295.8591796875 205.31328125 298.375 203.8 285.3869140625 198.0888671875 276.9 185.9
M 250.45 193.175
Q 249.946484375 193.6833984375 249.425 194.175
M 257.85 163.55
Q 264.09765625 148.6404296875 264.9 131.85
M 215.45 94.75
L 216.2 101.45
M 244.775 185.725
L 242.375 184.25
M 143.65 102.05
Q 148.582421875 103.178515625 153.7 102.9
M 135.25 99.25
L 135.675 99.25
Q 139.5990234375 101.123046875 143.65 102.05
M 134.85 98.85
Q 135.258984375 99.0560546875 135.675 99.25
M 153.875 143.6
L 153.875 143.625
Q 154.0890625 150.4443359375 155.575 157.825 156.649609375 163.187109375 158.4 168.85 159.59375 172.7052734375 161.1 176.7 160.596875 172.51640625 160.25 168.35
M 158.6 136.4
Q 158.91796875 141.1041015625 159.5 145.4 160.4203125 152.0396484375 162 157.7
M 159.5 145.4
Q 159.471875 146.848828125 159.475 148.3 159.42109375 154.92265625 159.775 161.6
M 153.875 143.6
L 153.875 143.575
Q 153.5736328125 133.379296875 156.125 124.45
M 151.2 99.3
Q 145.9970703125 101.9330078125 135.675 99.25
M 113.4 186.6
Q 114.28046875 185.409375 115.1 184.2 117.5 180.6392578125 119.375 176.875 120.4791015625 174.66875 121.4 172.4
M 109 182.6
Q 106.62734375 184.85859375 100.25 186.025
M 140 163.9
Q 140.7146484375 161.2515625 141.5 158.875
M 141.575 158.675
L 141.775 158.1
Q 144.3154296875 150.593359375 148.275 145.475
M 147.175 144.125
Q 140.62734375 154.794140625 136.45 167.15
M 151.2 99.3
Q 161.161328125 96.1771484375 168.45 91.85
M 115.1 184.2
Q 109.680078125 200.5509765625 107.725 215.1 107.657421875 215.551953125 107.6 216 107.83984375 238.237890625 113.025 254.25 113.287109375 255.09453125 113.575 255.925
M 110.275 257.1
Q 112.38984375 263.99140625 115.7 270.25 110.6052734375 265.942578125 107.35 259.95
M 113.575 255.925
Q 120.5005859375 275.95546875 135.475 285.8 139.9580078125 288.7234375 145.15 290.75
M 110.275 257.1
Q 104.6765625 238.775390625 107.6 216
M 307.1 206.8
Q 302.50546875 205.63359375 298.375 203.8
M 314.25 208.6
Q 308.3080078125 208.8806640625 290.8 206.1
M 232.5 203.825
Q 236.455078125 202.49375 239.8 200.825 240.2009765625 200.6328125 240.6 200.425
M 224.4 206.1
Q 227.5640625 205.38359375 230.425 204.5 231.4880859375 204.1759765625 232.5 203.825
M 248.35 195.225
Q 245.012890625 198.119921875 240.6 200.425"/>

<path id="Layer0_0_3_STROKES" stroke="#000000" stroke-opacity="0.8" stroke-width="0.8" stroke-linejoin="round" stroke-linecap="round" fill="none" d="
M 196.8 27.9
Q 209.869140625 27.169140625 223.75 27.25
M 276 88.9
Q 273.77578125 92.5208984375 270 96.05 257.254296875 82.8275390625 244.5 73.25 226.125 65.7572265625 207.2 63.2 207.3443359375 59.080078125 207.75 53.85 220.416796875 52.4103515625 250.1 63.6 263.8412109375 74.3705078125 276 88.9 Z
M 144.5 96.525
L 144.5 91.95
Q 154.84453125 85.694140625 173.9 88.15 192.1744140625 87.9572265625 205.1 90.9
L 208.3 91.6 230.8 97.35
Q 235.4931640625 98.50859375 237.15 101.3
L 242.95 105.9 245.7 108.7
M 246.275 109.3
Q 257.3369140625 120.02265625 264.9 131.85 267.3515625 134.8310546875 268.525 138.725
L 274.025 149.15
M 271.2 46.85
Q 267.0171875 51.5130859375 264.4 56.35 279.539453125 67.6294921875 293.8 76.8 295.8185546875 76.274609375 295.8 74.9
L 295.8 73.3 295.8 67.15
Q 286.6810546875 58.0935546875 271.2 46.85 Z
M 238.25 46.5
Q 237.8720703125 48.412890625 244.15 31.8 227.6765625 26.680078125 208.45 27.8 206.9248046875 34.5646484375 208 42.05 223.121875 41.2796875 238.25 46.5 Z
M 162.3 65.35
L 178 39.6
M 162.55 168.15
Q 166.35 173.6564453125 168.85 182.25 170.878125 189.341796875 164.9 202.15 163.984375 201.4927734375 163.075 200.925 157.33125 197.3146484375 152.175 197.425 152.9900390625 199.2908203125 153.925 201.1 158.0478515625 204.0986328125 161.8 205.8
M 164.15 206.65
Q 171.1958984375 210.16171875 177.7 212.2 176.8140625 210.1548828125 177.7 209.35 172.4236328125 207.1751953125 171.2 201.3 174.1625 198.0990234375 179.65 196.95 179.725390625 196.905859375 179.8 196.85 180.231640625 196.5220703125 181.875 194.9 184.0240234375 192.7763671875 190.75 189.15 191.107421875 188.39140625 191.55 188.075
L 186.1 178.6
M 178 158.675
Q 182.5732421875 167.796484375 190.2 171.35 186.43046875 171.5091796875 180.75 167.5
M 164.175 196.45
Q 164.530859375 196.629296875 164.9 196.8
L 163.075 200.925
M 165.85 190.8
Q 165.4921875 194.296875 164.175 196.45 155.0833984375 192.091015625 148.25 184.4 149.494921875 191.209765625 152.175 197.425
M 201.325 178.8
Q 203.7306640625 177.115625 206.95 175.85
M 189.9 192.2
Q 190.86875 191.8916015625 192.3 192.2 191.796875 193.8296875 190.825 195.375
M 192.8 196.7
Q 193.17421875 195.9611328125 193.6 195.25
M 189.4 194.05
Q 187.762890625 196.1083984375 187.35 197.25 186.8203125 198.6671875 188.2 198.65 189.7837890625 197.060546875 190.825 195.375
M 191.55 188.075
Q 192.0228515625 187.73515625 192.6 187.95 192.765625 186.9681640625 193.55 186.65 195.0193359375 181.6724609375 194.525 177.1 194.0669921875 172.6986328125 191.775 168.675
M 208.9 186.525
Q 203.5736328125 183.419921875 197.05 188.1 196.7326171875 187.101953125 195.2 186.6 194.1806640625 186.4177734375 193.55 186.65
M 191.15 190.1
Q 193.101171875 189.29765625 193.3 192 194.9853515625 191.977734375 194.75 194.4
M 193 194.85
Q 194.7822265625 194.5375 196.975 194.775 196.820703125 193.1638671875 197.8 192.55
M 196.975 194.775
Q 197.2837890625 194.8060546875 197.6 194.85
M 201.325 178.8
Q 196.8076171875 181.96171875 195.2 186.6
M 173.825 168.225
L 184.6 175.8
M 213.625 197.775
Q 215.998046875 196.0234375 216.6 192.8 216.8208984375 191.7755859375 215.45 190.7
M 229.95 178.35
L 231.55 177.55
M 242.375 184.25
Q 244.9443359375 184.0818359375 246.725 183.125
M 231.55 177.55
Q 231.416796875 176.7861328125 231.525 176.2
L 224.325 177.85
M 224.6 180.8
Q 226 179.575 229.95 178.35
M 231.525 176.2
Q 231.776953125 175.041796875 233.025 174.6
M 263.15 177.1
Q 268.84609375 175.6580078125 273.45 171.85
M 274.025 149.15
L 276.8 154.4
Q 278.8548828125 162.446875 281.575 168.275
M 154.55 125.1
Q 155.1126953125 124.266796875 155.675 123.425 156.3458984375 122.43125 157 121.425 159.9111328125 111.63515625 164.9 100.7
M 159.9 102.075
Q 156.5478515625 109.290625 152.925 116.35 149.3798828125 123.237109375 145.575 129.975 143.6189453125 133.4271484375 141.575 136.825
M 137.15 144.15
Q 139.381640625 140.56640625 141.525 136.925
M 143.15 140.15
Q 145.25859375 137.6171875 147.25 135.05 151.1033203125 130.1287109375 154.55 125.1
M 141.575 136.825
Q 141.554296875 136.876171875 141.525 136.925
M 156.125 124.45
Q 156.1625 124.328515625 156.2 124.2 156.57421875 122.8267578125 157 121.425
M 145.575 129.975
Q 144.215234375 129.456640625 143.65 127.15
L 143.65 102.05
M 149.85 138.9
Q 147.4990234375 139.2259765625 148.4 141.1 145.9890625 140.8294921875 146.075 142.35 146.0955078125 142.7591796875 146.05 143.3
L 147.175 144.125
Q 147.7412109375 144.8607421875 148.275 145.475 149.835546875 147.2111328125 151.2 147.925
M 151.55 146.9
Q 151.64140625 146.599609375 151.75 146.325 150.006640625 145.4125 149.25 144.5
M 145 143
L 146.075 142.35
M 153.875 143.575
Q 151.29921875 141.7681640625 149.85 138.9 148.55 138.197265625 147.25 135.05
M 153.875 143.625
Q 152.445703125 144.5525390625 151.75 146.325
M 155.675 123.425
Q 153.3462890625 131.2921875 149.85 138.9
M 148.1 183.55
Q 148.172265625 183.978515625 148.25 184.4
M 161.125 211.55
Q 157.9458984375 210.5904296875 153.75 208.9 152.20546875 208.182421875 150.8 207.3 144.212109375 203.264453125 140.4 195.9
M 153.925 201.1
Q 156.255859375 205.612109375 159.4 209.8
M 164.2 212.375
Q 162.803125 212.0677734375 161.125 211.55
M 241.05 276.5
Q 242.890625 272.4416015625 243.9 268
M 243.825 210.25
Q 247.2880859375 219.12109375 249.3 227.5 253.108203125 243.34765625 251.7 257.4
M 245.825 206.275
Q 244.130078125 209.25703125 243.825 210.25 242.008203125 205.601171875 239.8 200.825
M 237.2 216.6
L 242.25 218.05 239.1 219.775
M 246.875 254.35
Q 245.9220703125 250.320703125 244.8 245.9 240.861328125 231.4826171875 236 221.5
L 231.5 224.7
M 246.875 254.35
Q 247.30546875 256.1673828125 247.7 257.9 249.0138671875 265.9015625 248.55 274.25 248.92890625 273.58828125 249.3 272.9 251.408203125 266.6939453125 251.7 257.4
M 244.375 280.3
Q 246.601171875 277.6263671875 248.55 274.25
M 275.9 294.1
Q 277.733984375 293.734375 281.6 295.9 282.3736328125 296.309375 282.825 296.725 284.2359375 298.0140625 282.7 299.4
M 228.55 214.525
Q 230.0935546875 214.7388671875 231.75 215.125
M 233.5 213.2
L 230.425 204.5
M 228.85 216.85
Q 226.7744140625 215.61171875 224.75 214.25 224.896875 214.250390625 225.05 214.25
M 224.75 214.25
Q 224.261328125 213.921484375 223.775 213.575 222.74453125 212.864453125 221.725 212.125
M 228.55 214.525
Q 226.7224609375 214.2755859375 225.05 214.25
M 223.8 213.425
Q 223.790625 213.50625 223.775 213.575
M 239.1 219.775
L 236 221.5
M 237.2 216.6
L 234.4 215.8 233.5 213.2
M 234.4 215.8
Q 233.0400390625 215.4078125 231.75 215.125
M 221.725 212.125
Q 216.93984375 208.622265625 212.45 204.4
L 210.35 201.85
Q 209.750390625 202.0939453125 208.7 202.1 203.725 198.2509765625 198.5 192.05
M 210.35 201.85
Q 210.9806640625 201.5970703125 211.1 201.075
M 222.4 205.675
Q 224.5892578125 209.7421875 223.8 213.425
M 223 221.8
Q 207.0412109375 212.2244140625 198.1 196.3 198.0712890625 200.7056640625 198.15 204.8 198.325390625 213.7458984375 199.025 221.2 199.2263671875 223.3912109375 199.475 225.45 199.9328125 229.300390625 200.55 232.7 193.5384765625 233.18828125 188.75 231.7 188.2818359375 222.6580078125 189.025 214.5 189.2251953125 212.3970703125 189.5 210.35 189.8810546875 207.594140625 190.4 204.95 188.617578125 207.74765625 187.7 210.7 187.2015625 212.2537109375 186.95 213.85
L 183.95 213.85
Q 179.3427734375 214.33828125 172 213.85
L 164.2 212.375
M 182.25 210.8
L 177.7 209.35
M 177.3 199.7
Q 178.35546875 198.28203125 179.65 196.95
M 177.7 212.2
Q 180.8900390625 213.203125 183.95 213.85
M 241.05 276.5
Q 238.0875 283.1013671875 232.95 288.7 235.0025390625 287.9431640625 236.925 286.8 240.96328125 284.403125 244.375 280.3
M 230 291.65
Q 231.1521484375 290.5791015625 232.225 289.475 232.590234375 289.087890625 232.95 288.7
M 279.1 298.35
Q 279.33984375 297.593359375 280.375 297.175 279.213671875 296.9107421875 278.45 296.05
M 280.375 297.175
Q 281.2853515625 296.8171875 282.825 296.725
M 216.6 192.8
Q 217.365625 196.1263671875 218.85 198.5
M 160.95 69
Q 160.40078125 74.36171875 162.5 79.9
M 164.15 206.65
L 161.8 205.8
M 190.4 204.95
Q 190.9126953125 200.455078125 192.8 196.7"/>

<path id="Layer0_0_4_STROKES" stroke="#000000" stroke-opacity="0.8" stroke-width="0.5" stroke-linejoin="round" stroke-linecap="round" fill="none" d="
M 274.025 149.15
Q 283.5859375 141.4970703125 291.1 132.65 296.6478515625 127.42109375 300.3 118.95
M 225.5 243
Q 224.6763671875 246.997265625 225.75 249.05
M 300.25 202.25
Q 303.4962890625 205.5072265625 307.1 206.8
M 222.175 225.05
Q 219.6416015625 231.2447265625 217.3 240.7
M 166.6 249.8
Q 189.7798828125 256.1859375 214.5 256.65
M 173.65 246.05
Q 193.89140625 243.470703125 210.25 238.95"/>

<path id="Layer0_0_5_STROKES" stroke="#CC0000" stroke-opacity="0.8" stroke-width="0.5" stroke-linejoin="round" stroke-linecap="round" fill="none" d="
M 280.475 173.95
Q 280.486328125 174.0001953125 280.5 174.05
M 253.4 172.725
L 253.35 172.75
M 141.5 158.875
Q 141.5330078125 158.775 141.575 158.675
M 244.7 250.3
L 246.875 254.35
M 228.85 216.85
Q 226.9140625 215.488671875 225.05 214.25 224.423828125 213.836328125 223.8 213.425 222.7546875 212.76015625 221.725 212.125
M 220.7 220.1
Q 221.8201171875 220.9650390625 223 221.8"/>
</defs>

<g transform="matrix( 1, 0, 0, 1, 0,0) ">
<use xlink:href="#Layer1_0_FILL"/>

<use xlink:href="#Layer1_0_1_STROKES"/>
</g>

<g transform="matrix( 1, 0, 0, 1, 0,0) ">
<use xlink:href="#Layer0_0_FILL"/>

<use xlink:href="#Layer0_0_1_STROKES"/>

<use xlink:href="#Layer0_0_2_STROKES"/>

<use xlink:href="#Layer0_0_3_STROKES"/>

<use xlink:href="#Layer0_0_4_STROKES"/>

<use xlink:href="#Layer0_0_5_STROKES"/>
</g>
</svg>
